<?xml version="1.0" encoding="utf-8"?>
<!-- Generator: Adobe Illustrator 26.2.1, SVG Export Plug-In . SVG Version: 6.00 Build 0)  -->
<svg version="1.1" id="a" xmlns="http://www.w3.org/2000/svg" xmlns:xlink="http://www.w3.org/1999/xlink" x="0px" y="0px"
	 viewBox="0 0 481.1 143.6" style="enable-background:new 0 0 481.1 143.6;" xml:space="preserve">
<style type="text/css">
	.st0{fill:#FFEFA5;}
	.st1{font-family:'Gabriela-Regular';}
	.st2{font-size:68px;}
	.st3{fill:none;stroke:#FFEFA5;stroke-miterlimit:10;}
	.st4{fill:#FFFFFF;}
	.st5{font-family:'Marcellus-Regular';}
	.st6{font-size:24px;}
	.st7{fill:none;stroke:#FFEFA5;stroke-width:0.89;stroke-miterlimit:10;}
</style>
<text transform="matrix(1 0 0 1 168.9628 134.3704)" class="st0 st1 st2">ANZARTE</text>
<text transform="matrix(1 0 0 1 168.9628 134.3704)" class="st3 st1 st2">ANZARTE</text>
<text transform="matrix(1.0036 0 0 1 379.9531 77.4906)" class="st4 st5 st6">Fundación</text>
<g>
	<polygon class="st7" points="55.1,5.7 90.8,134.4 159.9,88.6 	"/>
	<line class="st7" x1="159.9" y1="88.6" x2="77" y2="84.6"/>
	<line class="st7" x1="93.1" y1="97" x2="100.2" y2="97.4"/>
	<line class="st7" x1="109.5" y1="86.2" x2="93.1" y2="97"/>
	<line class="st7" x1="90.8" y1="134.4" x2="109.5" y2="86.2"/>
	<line class="st7" x1="98.8" y1="93.2" x2="97.4" y2="97.3"/>
	<line class="st7" x1="102.5" y1="104.2" x2="98.8" y2="93.2"/>
	<line class="st7" x1="77" y1="84.6" x2="102.5" y2="104.2"/>
</g>
<path class="st0" d="M15.8,23.8l-1.6,0.5c-0.3,0.1-0.5,0.2-0.8,0.3c-0.6,0.2-1.4,0.5-2.1,0.6c-1.3,0.2-2.6-0.3-3.4-1.1
	C7.1,23.2,6.7,22,7,20.8c0.1-0.8,0.6-1.5,1.3-2c0.6-0.4,1.4-0.5,2.2-0.3c0.7,0.2,1.2,0.7,1.4,1.3c0.2,0.6,0,1.3-0.4,1.8
	c-0.4,0.4-1.1,0.5-1.6,0.2c-0.4-0.3-0.5-0.6-0.3-1.1c0-0.1,0.2-0.3,0.3-0.4l0.3-0.3l0.7-0.9l-1.1,0.2c-0.9,0.2-1.4,0.8-1.5,1.8
	c0,1,0.4,1.8,1.4,2.1c1.1,0.4,2.2,0.2,3-0.6c0.9-0.9,1.1-2,0.7-3.2c-0.3-1-1-1.7-1.9-2.1c-1-0.4-2.2-0.4-3.3,0.1S6.3,18.8,5.9,20
	s-0.3,2.7,0.3,3.9c0.7,1.5,2.3,2.5,4.2,2.8c0.3,0,0.6,0.1,0.9,0.1c1.4,0,2.8-0.5,3.6-1.4C14.9,25.4,15.8,23.8,15.8,23.8z"/>
<path class="st0" d="M28.6,20.7l1.6,0.6L29,20c-0.2-0.2-0.3-0.4-0.5-0.5c-0.4-0.4-0.8-0.8-1-1.2c-0.8-1.2-0.7-2.5,0.1-3.9
	c0.7-1.1,1.6-1.5,2.9-1.4c0.7,0.1,1.3,0.4,1.7,1c0.3,0.4,0.4,1,0.3,1.5c-0.2,0.9-0.9,1.5-1.7,1.4c-0.5-0.1-1.2-0.3-1.1-1.6l0.1-2.1
	L28.9,15c-0.5,1-0.4,1.8,0.4,2.5s2.2,0.9,3.2,0.4c0.9-0.5,1.6-1.5,1.7-2.6c0.1-1.1-0.3-2.2-1.1-2.9c-1-0.8-2.3-1.2-3.5-1
	c-1.3,0.2-2.4,1-3.1,2.2c-0.8,1.3-0.9,2.9-0.4,4.4C26.6,19.4,27.5,20.3,28.6,20.7z"/>
<path class="st0" d="M19.3,20.1l-0.8-2.6c-0.1-0.3-0.2-0.7-0.3-1c-0.2-0.7-0.4-1.4-0.6-2c-0.4-1.9,0-3.7,1.4-5.9
	c0.2-0.3,0.2-0.7,0.2-1V7.3l0.1-0.8l-0.8,0.3c-0.1,0-0.2,0.1-0.3,0.1c-0.3,0.1-0.6,0.2-0.9,0.5c-1,1-1.6,2.3-1.7,4
	c-0.2,2.2,0.5,4.3,2,6.4C17.6,17.8,19.3,20.1,19.3,20.1z"/>
<path class="st0" d="M12.2,16.4c0.1,0.1,0.3,0.1,0.4,0.2l3.2,1.4l-2.6-2.1c-2.9-2.3-5.8-2.8-8.7-1.6c-0.3,0.1-0.7,0.4-0.9,0.6
	l0.1-0.1c0.1-0.2,0.2-0.3,0.2-0.4c0.2-0.3,0.3-0.6,0.3-0.9c-0.1-0.4-0.7-0.9-1.2-0.8c-0.4,0.1-0.8,0.6-0.8,1.1
	c0,0.3,0.2,0.6,0.5,0.8L3,14.9l0.3,0.3l-0.1,0.1l-0.3,0.3c-0.3,0.3-0.3,0.8-0.2,1.1c0.2,0.4,0.8,0.4,1.1,0.3
	c0.4-0.1,0.8-0.3,1.2-0.5C7.3,15.2,9.7,15.2,12.2,16.4z"/>
<path class="st0" d="M38,18.6l1.2-2.3L37.3,18c-4,3.6-8.4,4.4-13.5,2.4l-3.2-1.1l2.8,2c1.7,1.2,3.8,1.8,6,1.8c0.9,0,1.7-0.1,2.6-0.3
	C34.7,22.2,36.9,20.6,38,18.6z"/>
<path class="st0" d="M25.7,27.1l3.9-1.8l-4.2,1c-3.3,0.8-5.8-0.2-7.7-2.8l-0.3-0.4l-0.9,0.7v0.5c0,0.2,0,0.5,0.1,0.8
	c0.5,1.2,1.5,2,2.8,2.4c0.8,0.3,1.7,0.4,2.5,0.4C23.3,27.9,24.5,27.6,25.7,27.1z"/>
<path class="st0" d="M14.4,15.6l1.8,2.5l-1-2.8l-0.3-0.9c-0.2-0.7-0.5-1.3-0.6-1.9c-0.8-3.5,0.9-7.7,3.9-9.3
	c1.5-0.8,3.1-0.9,4.9-0.2l0.4-0.8c-2.5-1.5-5.8-0.9-7.9,1.5c-2.9,3.2-3.4,7.8-1.4,11.6C14.3,15.4,14.3,15.5,14.4,15.6z"/>
<path class="st0" d="M40.5,21.1c-0.2,0-0.3,0.1-0.4,0.2c0.6-1,1-2.2,1.5-3.3l-0.8-0.4c-0.3,0.5-0.5,0.9-0.8,1.3
	c-0.6,1-1,1.9-1.6,2.8c-2.6,4.3-5.1,7.1-8.2,9.1c-3.6,2.3-7.6,3.1-11.8,2.5h-0.4L14.4,33l3.2,1.1c1.3,0.5,2.8,0.7,4.5,0.7h1.2
	c3.6-0.2,6.9-1.6,10-4.4c2.4-2.2,4.5-4.7,6.2-7.9v0.2c0.1,0.7,0.6,1.1,1.2,1.1h0.2c0.5-0.1,0.8-0.3,1-0.7c0.2-0.3,0.3-0.7,0.2-1
	C41.9,21.3,41.2,20.9,40.5,21.1L40.5,21.1z"/>
<path class="st0" d="M21.5,7.2c-0.2,0.3-0.3,0.7-0.2,1.1c0.2,0.7,0.6,1.1,1.2,1.1c0.1,0,0.3,0,0.4-0.1c0.4-0.1,0.8-0.3,1-0.7
	c0.2-0.3,0.3-0.7,0.2-1.1c-0.2-0.7-0.8-1.1-1.6-1C22.1,6.5,21.7,6.8,21.5,7.2z"/>
<path class="st0" d="M55.8,18.3c-0.4-0.2-0.7-0.4-1-0.4c-0.4,0-0.7,0.2-1,0.5c-0.2,0.3-0.3,0.7-0.2,1c0.1,0.4,0.4,0.7,0.7,0.9
	c0.2,0.1,0.4,0.1,0.6,0.1c0.1,0,0.3,0,0.4-0.1c0.3-0.1,0.6-0.4,0.8-0.8c0.1-0.1,0.2-0.3,0.4-0.5l0.4-0.4l-0.5-0.2
	C56.1,18.4,55.9,18.3,55.8,18.3z"/>
<path class="st0" d="M1.5,14.6c-0.1,0-0.2-0.1-0.3-0.1l-0.4-0.3l-0.2,0.4c-0.1,0.1-0.1,0.2-0.2,0.3c-0.2,0.3-0.4,0.6-0.4,1
	c0,0.4,0.3,0.6,0.6,0.9c0.1,0.1,0.2,0.1,0.2,0.2L1,17.2l0.3-0.1c0.5-0.3,0.9-0.5,1-0.9c0.1-0.2,0.1-0.5-0.1-0.8
	C2.1,14.9,1.8,14.7,1.5,14.6z"/>
<path class="st0" d="M17.4,6c0.3,0.2,0.6,0.4,0.9,0.4h0.1c0.4,0,0.6-0.4,0.9-0.6c0.1-0.1,0.1-0.2,0.2-0.2l0.2-0.2l-0.2-0.8l-0.3-0.1
	c-0.1,0-0.2-0.1-0.3-0.1c-0.3-0.2-0.7-0.4-1-0.2c-0.3,0.1-0.5,0.5-0.7,0.8c-0.1,0.1-0.1,0.2-0.2,0.3l-0.3,0.4L17.1,6
	C17.2,5.8,17.3,5.9,17.4,6z"/>
<path class="st0" d="M42.2,24.8c-0.3-0.2-0.6-0.3-0.9-0.3c-0.4,0-0.7,0.2-0.9,0.5s-0.2,0.7,0,1c0.2,0.4,0.8,0.8,1.2,0.8h0.1
	c0.4,0,0.6-0.3,0.8-0.7c0.1-0.1,0.2-0.3,0.4-0.4l0.4-0.5L42.7,25C42.5,24.9,42.3,24.8,42.2,24.8z"/>
<path class="st0" d="M16,27.9c-0.5,0.1-0.9,0.8-0.9,1.3c0,0.4,0.3,0.6,0.6,0.8c0.1,0.1,0.3,0.2,0.4,0.3l0.5,0.4l0.2-0.6
	c0.1-0.2,0.2-0.3,0.2-0.4c0.2-0.3,0.4-0.7,0.2-1C17.1,28.3,16.5,27.8,16,27.9z"/>
<path class="st0" d="M16.3,6.1l-0.4-0.3l-0.3,0.4c0,0.1-0.1,0.1-0.1,0.2c-0.2,0.2-0.4,0.5-0.4,0.8s0.3,0.5,0.5,0.8l0.3,0.3l0.5,0.5
	l0.3-0.6c0.1-0.2,0.1-0.3,0.2-0.4c0.2-0.3,0.3-0.6,0.2-0.9c-0.1-0.3-0.4-0.5-0.6-0.6C16.4,6.2,16.3,6.2,16.3,6.1z"/>
<path class="st0" d="M18.5,28.2c-0.4,0.1-0.7,0.6-0.7,1c0,0.2,0,0.3,0.2,0.5c0.1,0.1,0.5,0.4,0.8,0.4l0,0c0.3,0,0.5-0.2,0.7-0.4
	l0.3-0.3l0.5-0.4l-0.6-0.3c-0.1-0.1-0.3-0.2-0.4-0.2C19.1,28.3,18.9,28.1,18.5,28.2z"/>
<path class="st0" d="M40.3,27.4c-0.1,0-0.1-0.1-0.2-0.1l-0.4-0.2l-0.2,0.4c0,0.1-0.1,0.1-0.1,0.2c-0.1,0.2-0.3,0.4-0.3,0.8
	c0,0.3,0.3,0.5,0.5,0.7c0.1,0.1,0.2,0.1,0.3,0.2l0.5,0.4l0.2-0.6c0-0.1,0.1-0.2,0.1-0.3c0.1-0.3,0.2-0.5,0.2-0.8
	C40.7,27.6,40.4,27.5,40.3,27.4L40.3,27.4z"/>
<path class="st4" d="M132.6,21.7C113,5,90.6-1.6,65.9,2C62.2,0.3,55-0.9,48.5,1c-4.8,1.4-8.6,4.1-11.2,8L35,12.4l2.9-2.9
	c3.6-3.5,7.7-6.9,13.3-7.7c2.4-0.4,4.8-0.4,7.2-0.2c-3,0-5.8,0.7-8.5,2c-0.3,0.1-0.6,0.3-0.8,0.5L46.8,6l2.8-1.2
	c2.1-0.9,4.1-1.4,6.2-1.5c-4.5,1-8.4,3.5-11.7,7.4c-1.7,1.9-3.2,4-4.7,6c-1,1.3-2,2.7-3,4c-1.5,1.8-3.2,4-5,5.9
	c-2.6,2.7-5.5,4.1-8.7,4.4v0.9h0.9c1.7,0,3.4-0.4,5.2-1.4c3.1-1.6,5.9-4,8.6-7.4c1.5-1.9,2.9-3.8,4.3-5.7c0.9-1.2,1.7-2.4,2.6-3.6
	c0.3-0.4,0.6-0.8,1-1.2C43.6,17,45,22.4,48.7,25c2.7,1.9,6.5,1.7,8.5-0.6l2.8-3.1l-3.4,2.4c-1.3,1.2-2.4,1.6-3.6,1.6
	c-2.6,0-4.6-1.3-6-4c-2.2-4.2-1.3-8.9,2.2-12.3c-0.1,0.1-0.1,0.2-0.2,0.3c-1.4,2.7-1.6,5.2-0.6,7.6c0.3,0.7,0.8,1.3,1.2,1.8l0.2,0.2
	c0.2,0.3,0.5,0.3,0.8,0.3h0.2l0.5,0.1v-0.7c0-0.2,0.1-0.5,0-0.7c-0.1-0.3-0.3-0.7-0.5-1c-0.1-0.3-0.3-0.6-0.4-0.9
	c-1.3-3.2-0.8-6.2,1.5-9l0.2-0.2c0.5,0.1,0.9,0.1,1.2,0c1-0.2,2-0.5,3-0.8c1.2-0.3,2.5-0.7,3.8-1c-1,1.3-1.7,2.8-2,4
	c-0.4,2.1,0.3,3.9,2,5.3c1.1,0.9,2.6,1.2,4.1,0.7c1.3-0.4,2.4-1.4,2.7-2.6c0.4-1.4,0.1-2.8-1.1-3.8c-0.8-0.8-2.2-0.9-3.3-0.4
	c-0.7,0.4-1.2,0.9-1.3,1.6c-0.1,0.7,0.1,1.4,0.6,2l1.6,1.7c-0.1,0-0.2,0-0.3,0.1c-1,0.1-1.9-0.3-2.6-1c-0.8-0.8-1.2-2.1-1.1-3.3
	c0.2-1.5,1.7-3.6,3.4-4.8c4.5-0.8,8.9-1.2,13.2-1.3c10.5,0.3,29.2,3.1,48.3,16.7c14,10,28.1,24.3,30.8,61.6c0,0,5,34.3-31.8,47.9
	c0,0-33.8,8.6-45.9-14.1c0,0-5.4-12.2-1.7-24.1l3.9-4.6l0.4,0.1c0,0,0-0.1,0.2-0.2c3.3-2.9,7.3-5.2,11.9-6.8c0.5-0.2,1.1-0.1,1.7,0
	c0.2,0,0.4,0,0.6,0.1c2.3,0.2,4.4,1,6.1,2.4l-1,0.3c-1.5,0.4-2.6,1.2-3.1,2.4c-0.9,2.3-2.8,2.8-5.1,3.3c-0.1,0-0.2,0-0.4,0.1
	c-0.2,0-0.5,0.1-0.7,0.1l-1.5,0.5l1.5,0.4c2.2,0.5,4.1,0,5.7-1.4c0.3,1.8,1.3,3.2,2.9,4.4c2.1,1.5,4.2,1.4,5.5,1.1
	c2.1-0.5,3.9-2,4.9-3.9c1.3-2.6,1.2-5.7-0.3-8.5c-1.3-2.5-3.5-4.1-6.1-4.6c1.7-0.7,3.5-1.5,5.1-2.9c1.8-1.6,2.9-3.6,3.2-6.2
	c0-0.2,0-0.4-0.4-0.6l-0.5-0.3l-0.2,0.8c0,0.1,0,0.3-0.1,0.4c0,0.2-0.1,0.4-0.2,0.6c-0.6,1.8-1.7,3.3-3.4,4.6
	c-1.3,1-3.8,2.2-5.8,2.9c1-1.2,1.5-2.6,1.4-4.3l-0.1-2.9l-0.8,2.8c-0.4,1.6-1.2,3-2.3,4c-1,1-2,1.6-3.1,1.9s-2.2,0.6-3.3,1
	c2.4-2.2,3.8-4.7,4.4-7.5c0.3-1.4,0.5-2.8,0.7-4.1c0.2-1.1,0.4-2.3,0.6-3.4c0.2-1.3,0.6-2.5,0.9-3.7l0.2-0.6l0.1-0.1h0.6
	c0.6-0.1,1.2-0.1,1.7,0.1c0.4,0.1,0.8,0.6,1.2,1.3c0.2,0.3,0.3,0.7,0.3,1.1c0,0.2,0.1,0.4,0.1,0.6l0.3,1.3l0.5-1.2
	c0.3-0.7,0.3-1.4-0.2-2.6l0.3,0.1c0.9,0.3,1.7,0.5,2.5,0.8l0.6,0.2c2.2,0.8,4.6,1.5,7.1,1.4c1.6-0.1,2,0.1,3.1,1.2l0.8,0.9v-1.2
	c0-0.8-0.3-1.1-1.2-1.7c1-0.6,1.7-1.4,2.1-2.4l0.7-1.7l-1.4,1.2l-0.1,0.1c-0.1,0.1-0.2,0.1-0.3,0.2c-1.4,1.7-3.3,2.3-5.7,1.8
	c-2.3-0.5-4.7-1.2-6.9-1.9l-0.2-0.1c-1.7-0.5-3.6-1-5.5-0.8c0.5-1.6,2.7-4.4,5-5.9c2.6-1.8,5.6-2.6,8.1-3.1l3.7-0.8l-3.8-0.1h-0.5
	c-5.7,0.6-10,3.2-12.7,7.6v-1.8l-0.8,1.2c-0.2,0.2-0.3,0.5-0.5,0.8C97.8,56,97.4,56.6,97,57c-0.7,0.7-1.6,1.3-2.5,1.8
	c-1.8,0.8-3.3,1.8-4.7,3l0.9-3.6l0.4,0.3l2-1.4l1,0.7l-1-1.7l-0.3,0.1L93,56c-0.5-0.3-1.1-0.7-1.7-0.5c-0.1,0-0.3,0.1-0.4,0.2
	c0.1-4.6-1-9.1-3.2-13.9l-0.8,0.3v0.2c0,0.2,0.1,0.3,0.1,0.5c1.8,4.4,2.6,8.6,2.4,12.9c-0.1,3.5-1.1,7-2.8,10.6
	c-2,4.2-4.8,7.9-7.4,11.6l-0.1,0.2c-2.5,3.4-4.4,6.4-5.8,9.2c-2.2,3.9-3.6,7.4-4.2,11.9c-0.2,0.9-0.3,1.7-0.4,2.6h0.2
	c0,0.5-0.1,1-0.1,1.5c-0.8,15.7,7.5,28.2,22.3,33.4c6.4,2.3,12.7,3.4,18.8,3.4c11.5,0,22.3-4,32.3-12.1c12.3-9.9,18.7-23.2,19-39.6
	C162.2,60.8,152.4,38.7,132.6,21.7L132.6,21.7z M62.7,11.3c-0.5-1.2-0.2-1.6,0.4-1.9c0.3-0.1,0.5-0.2,0.7-0.2c0.5,0,1,0.3,1.4,1
	c0.4,0.6,0.4,1.4,0.1,2s-0.9,1.1-1.7,1.3C63.6,13.5,62.7,11.3,62.7,11.3z M99.1,77.5c1.2-0.3,2.4-0.3,3.7,0.1c3.4,0.9,6.2,4.9,6,8.5
	c-0.2,3.9-3.9,5.9-6.4,5.8c-1.3,0-2.7-0.8-3.7-2s-1.4-2.6-1.2-3.8c0.2-1,0.7-1.9,1.8-2.5l0.1-0.1c0.2-0.1,0.4-0.2,0.6-0.4l0.7-0.9
	l0.8,0.7l-0.2-1.2c-0.1-0.8-1-1.6-2.1-2.2c-0.9-0.5-1.8-0.8-2.7-1c-0.2,0-0.3-0.1-0.5-0.1C97,78.1,98,77.8,99.1,77.5z M98,58.7
	l-0.4,1.6c-0.3-0.4-0.6-0.9-1.1-1.1C97,58.9,97.5,58.8,98,58.7z M80.1,79.6l0.9,1.1l0.1-0.9l2-0.4v-0.3c0.1-0.7,0-1.2-0.4-1.6
	c-0.3-0.3-0.7-0.4-1.1-0.4l0,0c2.4-3.3,4.9-6.8,6.7-10.7c1.1-2.4,2.9-4.4,5.4-6c0.6-0.4,1.2-0.7,1.8-1l0,0c0.1,0.3,0.3,0.5,0.5,0.7
	c0.8,0.9,1.1,2,1,3c-0.3,1.9-0.7,3.8-1.1,5.6c-0.1,0.3-0.1,0.6-0.2,0.9c-0.3-1.1-0.7-1.7-1.5-1.9l-0.9-0.3l0.3,0.8
	c0.1,0.1,0.1,0.3,0.2,0.3l0.1,0.1c1,2.2,1,4-0.1,5.5c-0.5,0.7-1.1,1.3-1.7,1.9c-0.3,0.3-0.5,0.6-0.8,0.9l-0.5,0.5l0,0l-0.1,0.1
	c-1.3,0.9-2.7,1.8-4,2.6l-2.1,1.2l-2.4,1.5c-0.7,0.4-1.3,0.9-1.9,1.3c-0.1,0.1-0.2,0.1-0.3,0.2L79.9,84c-0.3-1-0.6-1.9-0.9-2.9
	C79.4,80.7,79.7,80.2,80.1,79.6z M78,83.1l0.6,2.3c0.1,0.2,0,0.4-0.3,0.6c-1.1,1-2.1,2-3.1,3.1C76.1,87,77,85,78,83.1z"/>
</svg>
