<?xml version="1.0" encoding="utf-8"?>
<!-- Generator: Adobe Illustrator 26.2.1, SVG Export Plug-In . SVG Version: 6.00 Build 0)  -->
<svg version="1.1" id="a" xmlns:svg="http://www.w3.org/2000/svg"
	 xmlns="http://www.w3.org/2000/svg" xmlns:xlink="http://www.w3.org/1999/xlink" x="0px" y="0px" viewBox="0 0 481.1 149.3"
	 style="enable-background:new 0 0 481.1 149.3;" xml:space="preserve">
<style type="text/css">
	.st0{fill:#FFAF3B;}
	.st1{font-family:'Gabriela-Regular';}
	.st2{font-size:68px;}
	.st3{fill:none;}
	.st4{fill:#1D1D1B;}
	.st5{font-family:'Marcellus-Regular';}
	.st6{font-size:24px;}
	.st7{fill:none;stroke:#FFAF3B;stroke-width:0.89;stroke-miterlimit:10;}
</style>
<text transform="matrix(1 0 0 1 164.5121 144.7003)" class="st0 st1 st2">ANZARTE</text>
<rect id="rect14" x="178.9" y="45.3" class="st3" width="115.2" height="27.1"/>
<text transform="matrix(1 0 0 1 365.121 86.8352)" class="st4 st5 st6">Fundación</text>
<g id="g36">
	<polygon id="polygon20" class="st7" points="55.1,10.3 90.8,139 159.9,93.2 	"/>
	<line id="line22" class="st7" x1="159.9" y1="93.2" x2="77" y2="89.2"/>
	<line id="line24" class="st7" x1="93.1" y1="101.6" x2="100.2" y2="102"/>
	<line id="line26" class="st7" x1="109.5" y1="90.8" x2="93.1" y2="101.6"/>
	<line id="line28" class="st7" x1="90.8" y1="139" x2="109.5" y2="90.8"/>
	<line id="line30" class="st7" x1="98.8" y1="97.8" x2="97.4" y2="101.9"/>
	<line id="line32" class="st7" x1="102.5" y1="108.8" x2="98.8" y2="97.8"/>
	<line id="line34" class="st7" x1="77" y1="89.2" x2="102.5" y2="108.8"/>
</g>
<path id="path38" class="st0" d="M15.8,28.4l-1.6,0.5c-0.3,0.1-0.5,0.2-0.8,0.3c-0.6,0.2-1.4,0.5-2.1,0.6C10,30,8.7,29.5,7.9,28.7
	c-0.8-0.9-1.2-2.1-0.9-3.3c0.1-0.8,0.6-1.5,1.3-2c0.6-0.4,1.4-0.5,2.2-0.3c0.7,0.2,1.2,0.7,1.4,1.3c0.2,0.6,0,1.3-0.4,1.8
	c-0.4,0.4-1.1,0.5-1.6,0.2c-0.4-0.3-0.5-0.6-0.3-1.1c0-0.1,0.2-0.3,0.3-0.4l0.3-0.3l0.7-0.9l-1.1,0.2c-0.9,0.2-1.4,0.8-1.5,1.8
	c0,1,0.4,1.8,1.4,2.1c1.1,0.4,2.2,0.2,3-0.6c0.9-0.9,1.1-2,0.7-3.2c-0.3-1-1-1.7-1.9-2.1c-1-0.4-2.2-0.4-3.3,0.1s-1.9,1.4-2.3,2.6
	s-0.3,2.7,0.3,3.9c0.7,1.5,2.3,2.5,4.2,2.8c0.3,0,0.6,0.1,0.9,0.1c1.4,0,2.8-0.5,3.6-1.4C14.9,30,15.8,28.4,15.8,28.4z"/>
<path id="path40" class="st0" d="M28.6,25.3l1.6,0.6L29,24.6c-0.2-0.2-0.3-0.4-0.5-0.5c-0.4-0.4-0.8-0.8-1-1.2
	c-0.8-1.2-0.7-2.5,0.1-3.9c0.7-1.1,1.6-1.5,2.9-1.4c0.7,0.1,1.3,0.4,1.7,1c0.3,0.4,0.4,1,0.3,1.5c-0.2,0.9-0.9,1.5-1.7,1.4
	c-0.5-0.1-1.2-0.3-1.1-1.6l0.1-2.1l-0.9,1.8c-0.5,1-0.4,1.8,0.4,2.5s2.2,0.9,3.2,0.4c0.9-0.5,1.6-1.5,1.7-2.6
	c0.1-1.1-0.3-2.2-1.1-2.9c-1-0.8-2.3-1.2-3.5-1c-1.3,0.2-2.4,1-3.1,2.2c-0.8,1.3-0.9,2.9-0.4,4.4C26.6,24,27.5,24.9,28.6,25.3z"/>
<path id="path42" class="st0" d="M19.3,24.7l-0.8-2.6c-0.1-0.3-0.2-0.7-0.3-1c-0.2-0.7-0.4-1.4-0.6-2c-0.4-1.9,0-3.7,1.4-5.9
	c0.2-0.3,0.2-0.7,0.2-1v-0.3l0.1-0.8l-0.8,0.3c-0.1,0-0.2,0.1-0.3,0.1c-0.3,0.1-0.6,0.2-0.9,0.5c-1,1-1.6,2.3-1.7,4
	c-0.2,2.2,0.5,4.3,2,6.4C17.6,22.4,19.3,24.7,19.3,24.7z"/>
<path id="path44" class="st0" d="M12.2,21c0.1,0.1,0.3,0.1,0.4,0.2l3.2,1.4l-2.6-2.1c-2.9-2.3-5.8-2.8-8.7-1.6
	c-0.3,0.1-0.7,0.4-0.9,0.6l0.1-0.1c0.1-0.2,0.2-0.3,0.2-0.4c0.2-0.3,0.3-0.6,0.3-0.9c-0.1-0.4-0.7-0.9-1.2-0.8
	c-0.4,0.1-0.8,0.6-0.8,1.1c0,0.3,0.2,0.6,0.5,0.8L3,19.5l0.3,0.3l-0.1,0.1l-0.3,0.3c-0.3,0.3-0.3,0.8-0.2,1.1
	c0.2,0.4,0.8,0.4,1.1,0.3c0.4-0.1,0.8-0.3,1.2-0.5C7.3,19.8,9.7,19.8,12.2,21z"/>
<path id="path46" class="st0" d="M38,23.2l1.2-2.3l-1.9,1.7c-4,3.6-8.4,4.4-13.5,2.4l-3.2-1.1l2.8,2c1.7,1.2,3.8,1.8,6,1.8
	c0.9,0,1.7-0.1,2.6-0.3C34.7,26.8,36.9,25.2,38,23.2z"/>
<path id="path48" class="st0" d="M25.7,31.7l3.9-1.8l-4.2,1c-3.3,0.8-5.8-0.2-7.7-2.8l-0.3-0.4l-0.9,0.7v0.5c0,0.2,0,0.5,0.1,0.8
	c0.5,1.2,1.5,2,2.8,2.4c0.8,0.3,1.7,0.4,2.5,0.4C23.3,32.5,24.5,32.2,25.7,31.7z"/>
<path id="path50" class="st0" d="M14.4,20.2l1.8,2.5l-1-2.8L14.9,19c-0.2-0.7-0.5-1.3-0.6-1.9c-0.8-3.5,0.9-7.7,3.9-9.3
	c1.5-0.8,3.1-0.9,4.9-0.2l0.4-0.8c-2.5-1.5-5.8-0.9-7.9,1.5c-2.9,3.2-3.4,7.8-1.4,11.6C14.3,20,14.3,20.1,14.4,20.2z"/>
<path id="path52" class="st0" d="M40.5,25.8c-0.2,0-0.3,0.1-0.4,0.2c0.6-1,1-2.2,1.5-3.3l-0.8-0.4c-0.3,0.5-0.5,0.9-0.8,1.3
	c-0.6,1-1,1.9-1.6,2.8c-2.6,4.3-5.1,7.1-8.2,9.1c-3.6,2.3-7.6,3.1-11.8,2.5H18l-3.5-0.4l3.2,1.1c1.3,0.5,2.8,0.7,4.5,0.7h1.2
	c3.6-0.2,6.9-1.6,10-4.4c2.4-2.2,4.5-4.7,6.2-7.9v0.2c0.1,0.7,0.6,1.1,1.2,1.1H41c0.5-0.1,0.8-0.3,1-0.7c0.2-0.3,0.3-0.7,0.2-1
	C41.9,26,41.2,25.6,40.5,25.8L40.5,25.8z"/>
<path id="path54" class="st0" d="M21.5,11.8c-0.2,0.3-0.3,0.7-0.2,1.1c0.2,0.7,0.6,1.1,1.2,1.1c0.1,0,0.3,0,0.4-0.1
	c0.4-0.1,0.8-0.3,1-0.7c0.2-0.3,0.3-0.7,0.2-1.1c-0.2-0.7-0.8-1.1-1.6-1C22.1,11.1,21.7,11.4,21.5,11.8z"/>
<path id="path56" class="st0" d="M55.8,22.9c-0.4-0.2-0.7-0.4-1-0.4c-0.4,0-0.7,0.2-1,0.5c-0.2,0.3-0.3,0.7-0.2,1
	c0.1,0.4,0.4,0.7,0.7,0.9c0.2,0.1,0.4,0.1,0.6,0.1c0.1,0,0.3,0,0.4-0.1c0.3-0.1,0.6-0.4,0.8-0.8c0.1-0.1,0.2-0.3,0.4-0.5l0.4-0.4
	L56.4,23C56.1,23,55.9,22.9,55.8,22.9z"/>
<path id="path58" class="st0" d="M1.5,19.2c-0.1,0-0.2-0.1-0.3-0.1l-0.4-0.3l-0.2,0.4c-0.1,0.1-0.1,0.2-0.2,0.3
	c-0.2,0.3-0.4,0.6-0.4,1s0.3,0.6,0.6,0.9c0.1,0.1,0.2,0.1,0.2,0.2L1,21.8l0.3-0.1c0.5-0.3,0.9-0.5,1-0.9c0.1-0.2,0.1-0.5-0.1-0.8
	C2.1,19.5,1.8,19.3,1.5,19.2z"/>
<path id="path60" class="st0" d="M17.4,10.6c0.3,0.2,0.6,0.4,0.9,0.4h0.1c0.4,0,0.6-0.4,0.9-0.6c0.1-0.1,0.1-0.2,0.2-0.2l0.2-0.2
	l-0.2-0.8l-0.3-0.1C19.1,9.1,19,9,18.9,9c-0.3-0.2-0.7-0.4-1-0.2c-0.3,0.1-0.5,0.5-0.7,0.8c-0.1,0.1-0.1,0.2-0.2,0.3l-0.3,0.4
	l0.4,0.3C17.2,10.4,17.3,10.5,17.4,10.6z"/>
<path id="path62" class="st0" d="M42.2,29.4c-0.3-0.2-0.6-0.3-0.9-0.3c-0.4,0-0.7,0.2-0.9,0.5s-0.2,0.7,0,1c0.2,0.4,0.8,0.8,1.2,0.8
	h0.1c0.4,0,0.6-0.3,0.8-0.7c0.1-0.1,0.2-0.3,0.4-0.4l0.4-0.5l-0.6-0.2C42.5,29.5,42.3,29.4,42.2,29.4z"/>
<path id="path64" class="st0" d="M16,32.5c-0.5,0.1-0.9,0.8-0.9,1.3c0,0.4,0.3,0.6,0.6,0.8c0.1,0.1,0.3,0.2,0.4,0.3l0.5,0.4l0.2-0.6
	c0.1-0.2,0.2-0.3,0.2-0.4c0.2-0.3,0.4-0.7,0.2-1C17.1,32.9,16.5,32.4,16,32.5z"/>
<path id="path66" class="st0" d="M16.3,10.7l-0.4-0.3l-0.3,0.4c0,0.1-0.1,0.1-0.1,0.2c-0.2,0.2-0.4,0.5-0.4,0.8s0.3,0.5,0.5,0.8
	l0.3,0.3l0.5,0.5l0.3-0.6c0.1-0.2,0.1-0.3,0.2-0.4c0.2-0.3,0.3-0.6,0.2-0.9c-0.1-0.3-0.4-0.5-0.6-0.6C16.4,10.8,16.3,10.8,16.3,10.7
	z"/>
<path id="path68" class="st0" d="M18.5,32.8c-0.4,0.1-0.7,0.6-0.7,1c0,0.2,0,0.3,0.2,0.5c0.1,0.1,0.5,0.4,0.8,0.4l0,0
	c0.3,0,0.5-0.2,0.7-0.4l0.3-0.3l0.5-0.4l-0.6-0.3c-0.1-0.1-0.3-0.2-0.4-0.2C19.1,32.9,18.9,32.7,18.5,32.8z"/>
<path id="path70" class="st0" d="M40.3,32c-0.1,0-0.1-0.1-0.2-0.1l-0.4-0.2l-0.2,0.4c0,0.1-0.1,0.1-0.1,0.2
	c-0.1,0.2-0.3,0.4-0.3,0.8c0,0.3,0.3,0.5,0.5,0.7c0.1,0.1,0.2,0.1,0.3,0.2l0.5,0.4l0.2-0.6c0-0.1,0.1-0.2,0.1-0.3
	c0.1-0.3,0.2-0.5,0.2-0.8C40.7,32.2,40.4,32.1,40.3,32L40.3,32z"/>
<path id="path72" class="st4" d="M132.6,26.3C113,9.6,90.6,3,65.9,6.6c-3.7-1.7-10.9-2.9-17.4-1c-4.8,1.4-8.6,4.1-11.2,8L35,17
	l2.9-2.9c3.6-3.5,7.7-6.9,13.3-7.7C53.6,6,56,6,58.4,6.2c-3,0-5.8,0.7-8.5,2c-0.3,0.1-0.6,0.3-0.8,0.5l-2.3,1.9l2.8-1.2
	c2.1-0.9,4.1-1.4,6.2-1.5c-4.5,1-8.4,3.5-11.7,7.4c-1.7,1.9-3.2,4-4.7,6c-1,1.3-2,2.7-3,4c-1.5,1.8-3.2,4-5,5.9
	c-2.6,2.7-5.5,4.1-8.7,4.4v0.9h0.9c1.7,0,3.4-0.4,5.2-1.4c3.1-1.6,5.9-4,8.6-7.4c1.5-1.9,2.9-3.8,4.3-5.7c0.9-1.2,1.7-2.4,2.6-3.6
	c0.3-0.4,0.6-0.8,1-1.2c-1.7,4.4-0.3,9.8,3.4,12.4c2.7,1.9,6.5,1.7,8.5-0.6l2.8-3.1l-3.4,2.4c-1.3,1.2-2.4,1.6-3.6,1.6
	c-2.6,0-4.6-1.3-6-4c-2.2-4.2-1.3-8.9,2.2-12.3c-0.1,0.1-0.1,0.2-0.2,0.3c-1.4,2.7-1.6,5.2-0.6,7.6c0.3,0.7,0.8,1.3,1.2,1.8l0.2,0.2
	c0.2,0.3,0.5,0.3,0.8,0.3h0.2l0.5,0.1v-0.7c0-0.2,0.1-0.5,0-0.7c-0.1-0.3-0.3-0.7-0.5-1c-0.1-0.3-0.3-0.6-0.4-0.9
	c-1.3-3.2-0.8-6.2,1.5-9l0.2-0.2c0.5,0.1,0.9,0.1,1.2,0c1-0.2,2-0.5,3-0.8c1.2-0.3,2.5-0.7,3.8-1c-1,1.3-1.7,2.8-2,4
	c-0.4,2.1,0.3,3.9,2,5.3c1.1,0.9,2.6,1.2,4.1,0.7c1.3-0.4,2.4-1.4,2.7-2.6c0.4-1.4,0.1-2.8-1.1-3.8c-0.8-0.8-2.2-0.9-3.3-0.4
	c-0.7,0.4-1.2,0.9-1.3,1.6c-0.1,0.7,0.1,1.4,0.6,2l1.6,1.7c-0.1,0-0.2,0-0.3,0.1c-1,0.1-1.9-0.3-2.6-1c-0.8-0.8-1.2-2.1-1.1-3.3
	c0.2-1.5,1.7-3.6,3.4-4.8c4.5-0.8,8.9-1.2,13.2-1.3c10.5,0.3,29.2,3.1,48.3,16.7c14,10,28.1,24.3,30.8,61.6c0,0,5,34.3-31.8,47.9
	c0,0-33.8,8.6-45.9-14.1c0,0-5.4-12.2-1.7-24.1l3.9-4.6l0.4,0.1c0,0,0-0.1,0.2-0.2c3.3-2.9,7.3-5.2,11.9-6.8c0.5-0.2,1.1-0.1,1.7,0
	c0.2,0,0.4,0,0.6,0.1c2.3,0.2,4.4,1,6.1,2.4l-1,0.3c-1.5,0.4-2.6,1.2-3.1,2.4c-0.9,2.3-2.8,2.8-5.1,3.3c-0.1,0-0.2,0-0.4,0.1
	c-0.2,0-0.5,0.1-0.7,0.1l-1.5,0.5l1.5,0.4c2.2,0.5,4.1,0,5.7-1.4c0.3,1.8,1.3,3.2,2.9,4.4c2.1,1.5,4.2,1.4,5.5,1.1
	c2.1-0.5,3.9-2,4.9-3.9c1.3-2.6,1.2-5.7-0.3-8.5c-1.3-2.5-3.5-4.1-6.1-4.6c1.7-0.7,3.5-1.5,5.1-2.9c1.8-1.6,2.9-3.6,3.2-6.2
	c0-0.2,0-0.4-0.4-0.6l-0.5-0.3l-0.2,0.8c0,0.1,0,0.3-0.1,0.4c0,0.2-0.1,0.4-0.2,0.6c-0.6,1.8-1.7,3.3-3.4,4.6
	c-1.3,1-3.8,2.2-5.8,2.9c1-1.2,1.5-2.6,1.4-4.3l-0.1-2.9l-0.8,2.8c-0.4,1.6-1.2,3-2.3,4c-1,1-2,1.6-3.1,1.9s-2.2,0.6-3.3,1
	c2.4-2.2,3.8-4.7,4.4-7.5c0.3-1.4,0.5-2.8,0.7-4.1c0.2-1.1,0.4-2.3,0.6-3.4c0.2-1.3,0.6-2.5,0.9-3.7l0.2-0.6l0.1-0.1h0.6
	c0.6-0.1,1.2-0.1,1.7,0.1c0.4,0.1,0.8,0.6,1.2,1.3c0.2,0.3,0.3,0.7,0.3,1.1c0,0.2,0.1,0.4,0.1,0.6l0.3,1.3l0.5-1.2
	c0.3-0.7,0.3-1.4-0.2-2.6l0.3,0.1c0.9,0.3,1.7,0.5,2.5,0.8l0.6,0.2c2.2,0.8,4.6,1.5,7.1,1.4c1.6-0.1,2,0.1,3.1,1.2l0.8,0.9v-1.2
	c0-0.8-0.3-1.1-1.2-1.7c1-0.6,1.7-1.4,2.1-2.4l0.7-1.7l-1.4,1.2l-0.1,0.1c-0.1,0.1-0.2,0.1-0.3,0.2c-1.4,1.7-3.3,2.3-5.7,1.8
	c-2.3-0.5-4.7-1.2-6.9-1.9l-0.2-0.1c-1.7-0.5-3.6-1-5.5-0.8c0.5-1.6,2.7-4.4,5-5.9c2.6-1.8,5.6-2.6,8.1-3.1l3.7-0.8l-3.8-0.1h-0.5
	c-5.7,0.6-10,3.2-12.7,7.6V58l-0.8,1.2c-0.2,0.2-0.3,0.5-0.5,0.8c-0.3,0.6-0.7,1.2-1.1,1.6c-0.7,0.7-1.6,1.3-2.5,1.8
	c-1.8,0.8-3.3,1.8-4.7,3l0.9-3.6l0.4,0.3l2-1.4l1,0.7l-1-1.7l-0.3,0.1l0.2-0.2c-0.5-0.3-1.1-0.7-1.7-0.5c-0.1,0-0.3,0.1-0.4,0.2
	c0.1-4.6-1-9.1-3.2-13.9l-0.8,0.3v0.2c0,0.2,0.1,0.3,0.1,0.5c1.8,4.4,2.6,8.6,2.4,12.9c-0.1,3.5-1.1,7-2.8,10.6
	c-2,4.2-4.8,7.9-7.4,11.6l-0.1,0.2c-2.5,3.4-4.4,6.4-5.8,9.2c-2.2,3.9-3.6,7.4-4.2,11.9c-0.2,0.9-0.3,1.7-0.4,2.6h0.2
	c0,0.5-0.1,1-0.1,1.5c-0.8,15.7,7.5,28.2,22.3,33.4c6.4,2.3,12.7,3.4,18.8,3.4c11.5,0,22.3-4,32.3-12.1c12.3-9.9,18.7-23.2,19-39.6
	C162.2,65.4,152.4,43.3,132.6,26.3L132.6,26.3z M62.7,15.9c-0.5-1.2-0.2-1.6,0.4-1.9c0.3-0.1,0.5-0.2,0.7-0.2c0.5,0,1,0.3,1.4,1
	c0.4,0.6,0.4,1.4,0.1,2s-0.9,1.1-1.7,1.3C63.6,18.1,62.7,15.9,62.7,15.9z M99.1,82.1c1.2-0.3,2.4-0.3,3.7,0.1c3.4,0.9,6.2,4.9,6,8.5
	c-0.2,3.9-3.9,5.9-6.4,5.8c-1.3,0-2.7-0.8-3.7-2s-1.4-2.6-1.2-3.8c0.2-1,0.7-1.9,1.8-2.5l0.1-0.1c0.2-0.1,0.4-0.2,0.6-0.4l0.7-0.9
	l0.8,0.7l-0.2-1.2c-0.1-0.8-1-1.6-2.1-2.2c-0.9-0.5-1.8-0.8-2.7-1c-0.2,0-0.3-0.1-0.5-0.1C97,82.7,98,82.4,99.1,82.1z M98,63.3
	l-0.4,1.6c-0.3-0.4-0.6-0.9-1.1-1.1C97,63.5,97.5,63.4,98,63.3z M80.1,84.2l0.9,1.1l0.1-0.9l2-0.4v-0.3c0.1-0.7,0-1.2-0.4-1.6
	c-0.3-0.3-0.7-0.4-1.1-0.4l0,0c2.4-3.3,4.9-6.8,6.7-10.7c1.1-2.4,2.9-4.4,5.4-6c0.6-0.4,1.2-0.7,1.8-1l0,0c0.1,0.3,0.3,0.5,0.5,0.7
	c0.8,0.9,1.1,2,1,3c-0.3,1.9-0.7,3.8-1.1,5.6c-0.1,0.3-0.1,0.6-0.2,0.9c-0.3-1.1-0.7-1.7-1.5-1.9L93.3,72l0.3,0.8
	c0.1,0.1,0.1,0.3,0.2,0.3l0.1,0.1c1,2.2,1,4-0.1,5.5c-0.5,0.7-1.1,1.3-1.7,1.9c-0.3,0.3-0.5,0.6-0.8,0.9L90.8,82l0,0l-0.1,0.1
	c-1.3,0.9-2.7,1.8-4,2.6l-2.1,1.2l-2.4,1.5c-0.7,0.4-1.3,0.9-1.9,1.3c-0.1,0.1-0.2,0.1-0.3,0.2l-0.1-0.3c-0.3-1-0.6-1.9-0.9-2.9
	C79.4,85.3,79.7,84.8,80.1,84.2z M78,87.7l0.6,2.3c0.1,0.2,0,0.4-0.3,0.6c-1.1,1-2.1,2-3.1,3.1C76.1,91.6,77,89.6,78,87.7z"/>
</svg>
