<?xml version="1.0" encoding="utf-8"?>
<!-- Generator: Adobe Illustrator 26.2.1, SVG Export Plug-In . SVG Version: 6.00 Build 0)  -->
<svg version="1.1" id="Capa_3" xmlns="http://www.w3.org/2000/svg" xmlns:xlink="http://www.w3.org/1999/xlink" x="0px" y="0px"
	 viewBox="0 0 510.2 212.6" style="enable-background:new 0 0 510.2 212.6;" xml:space="preserve">
<style type="text/css">
	.st0{fill:#A59FBE;}
	.st1{font-family:'Gabriela', serif;}
	.st2{font-size:68px;}
	.st3{fill:none;stroke:#A59FBE;stroke-miterlimit:10;}
	.st4{fill:none;}
	.st5{fill:#269E91;}
	.st6{font-family:'Marcellus-Regular';}
	.st7{font-size:24px;}
	.st8{fill:none;stroke:#A69FBF;stroke-width:0.8856;stroke-miterlimit:10;}
	.st9{fill:#269E91;stroke:#269E91;stroke-miterlimit:10;}
	.st10{font-family:'Belleza-Regular';}
	.st11{font-size:16px;}
</style>
<text transform="matrix(1 0 0 1 180.8486 155.7504)" class="st0 st1 st2">ANZARTE</text>
<text transform="matrix(1 0 0 1 180.8486 155.7504)" class="st3 st1 st2">ANZARTE</text>
<rect x="193.7" y="80" class="st4" width="115.2" height="27.1"/>
<text transform="matrix(1 0 0 1 193.6999 99.7706)" class="st5 st6 st7">Fundación</text>
<g>
	<polygon class="st8" points="69.9,40.4 105.6,169.1 174.7,123.3 	"/>
	<line class="st8" x1="174.7" y1="123.3" x2="91.8" y2="119.3"/>
	<line class="st8" x1="107.9" y1="131.7" x2="115" y2="132.1"/>
	<line class="st8" x1="124.3" y1="120.9" x2="107.9" y2="131.7"/>
	<line class="st8" x1="105.6" y1="169.1" x2="124.3" y2="120.9"/>
	<line class="st8" x1="113.6" y1="127.9" x2="112.2" y2="132"/>
	<line class="st8" x1="117.3" y1="138.9" x2="113.6" y2="127.9"/>
	<line class="st8" x1="91.8" y1="119.3" x2="117.3" y2="138.9"/>
</g>
<g>
	<path class="st9" d="M30.6,58.5L29,59c-0.3,0.1-0.5,0.2-0.8,0.3c-0.6,0.2-1.4,0.5-2.1,0.6c-1.3,0.2-2.6-0.3-3.4-1.1
		c-0.8-0.9-1.2-2.1-0.9-3.3c0.1-0.8,0.6-1.5,1.3-2c0.6-0.4,1.4-0.5,2.2-0.3c0.7,0.2,1.2,0.7,1.4,1.3c0.2,0.6,0,1.3-0.4,1.8
		c-0.4,0.4-1.1,0.5-1.6,0.2c-0.4-0.3-0.5-0.6-0.3-1.1c0-0.1,0.2-0.3,0.3-0.4c0.1-0.1,0.2-0.2,0.3-0.3l0.7-0.9L24.6,54
		c-0.9,0.2-1.4,0.8-1.5,1.8c0,1,0.4,1.8,1.4,2.1c1.1,0.4,2.2,0.2,3-0.6c0.9-0.9,1.1-2,0.7-3.2c-0.3-1-1-1.7-1.9-2.1
		c-1-0.4-2.2-0.4-3.3,0.1c-1.1,0.5-1.9,1.4-2.3,2.6c-0.4,1.2-0.3,2.7,0.3,3.9c0.7,1.5,2.3,2.5,4.2,2.8c0.3,0,0.6,0.1,0.9,0.1
		c1.4,0,2.8-0.5,3.6-1.4L30.6,58.5z"/>
	<path class="st9" d="M43.4,55.4L45,56l-1.2-1.3c-0.2-0.2-0.3-0.4-0.5-0.5c-0.4-0.4-0.8-0.8-1-1.2c-0.8-1.2-0.7-2.5,0.1-3.9
		c0.7-1.1,1.6-1.5,2.9-1.4c0.7,0.1,1.3,0.4,1.7,1c0.3,0.4,0.4,1,0.3,1.5c-0.2,0.9-0.9,1.5-1.7,1.4c-0.5-0.1-1.2-0.3-1.1-1.6l0.1-2.1
		l-0.9,1.8c-0.5,1-0.4,1.8,0.4,2.5c0.8,0.7,2.2,0.9,3.2,0.4c0.9-0.5,1.6-1.5,1.7-2.6c0.1-1.1-0.3-2.2-1.1-2.9c-1-0.8-2.3-1.2-3.5-1
		c-1.3,0.2-2.4,1-3.1,2.2c-0.8,1.3-0.9,2.9-0.4,4.4C41.4,54.1,42.3,55,43.4,55.4z"/>
	<path class="st9" d="M34.1,54.8l-0.8-2.6c-0.1-0.3-0.2-0.7-0.3-1c-0.2-0.7-0.4-1.4-0.6-2c-0.4-1.9,0-3.7,1.4-5.9
		c0.2-0.3,0.2-0.7,0.2-1c0-0.1,0-0.2,0-0.3l0.1-0.8l-0.8,0.3c-0.1,0-0.2,0.1-0.3,0.1c-0.3,0.1-0.6,0.2-0.9,0.5c-1,1-1.6,2.3-1.7,4
		c-0.2,2.2,0.5,4.3,2,6.4L34.1,54.8z"/>
	<path class="st9" d="M27,51.1c0.1,0.1,0.3,0.1,0.4,0.2l3.2,1.4L28,50.6c-2.9-2.3-5.8-2.8-8.7-1.6c-0.3,0.1-0.7,0.4-0.9,0.6l0.1-0.1
		c0.1-0.2,0.2-0.3,0.2-0.4c0.2-0.3,0.3-0.6,0.3-0.9c-0.1-0.4-0.7-0.9-1.2-0.8C17.4,47.5,17,48,17,48.5c0,0.3,0.2,0.6,0.5,0.8
		c0.1,0.1,0.2,0.2,0.3,0.3l0.3,0.3L18,50l-0.3,0.3c-0.3,0.3-0.3,0.8-0.2,1.1c0.2,0.4,0.8,0.4,1.1,0.3c0.4-0.1,0.8-0.3,1.2-0.5
		C22.1,49.9,24.5,49.9,27,51.1z"/>
	<path class="st9" d="M52.8,53.3L54,51l-1.9,1.7c-4,3.6-8.4,4.4-13.5,2.4L35.4,54l2.8,2c1.7,1.2,3.8,1.8,6,1.8
		c0.9,0,1.7-0.1,2.6-0.3C49.5,56.9,51.7,55.3,52.8,53.3z"/>
	<path class="st9" d="M40.5,61.8l3.9-1.8l-4.2,1c-3.3,0.8-5.8-0.2-7.7-2.8l-0.3-0.4l-0.9,0.7v0.2c0,0.1,0,0.2,0,0.3
		c0,0.2,0,0.5,0.1,0.8c0.5,1.2,1.5,2,2.8,2.4c0.8,0.3,1.7,0.4,2.5,0.4C38.1,62.6,39.3,62.3,40.5,61.8z"/>
	<path class="st9" d="M29.2,50.3l1.8,2.5L30,50c-0.1-0.3-0.2-0.6-0.3-0.9c-0.2-0.7-0.5-1.3-0.6-1.9c-0.8-3.5,0.9-7.7,3.9-9.3
		c1.5-0.8,3.1-0.9,4.9-0.2l0.4-0.8c-2.5-1.5-5.8-0.9-7.9,1.5C27.5,41.6,27,46.2,29,50C29.1,50.1,29.1,50.2,29.2,50.3z"/>
	<path class="st9" d="M56.7,55.6c-0.2,0-0.3,0.1-0.4,0.2c0.6-1.1,1.1-2.3,1.6-3.5L57,51.9c-0.3,0.5-0.5,0.9-0.8,1.4
		c-0.6,1-1.1,2-1.7,3c-2.7,4.5-5.4,7.5-8.7,9.6c-3.8,2.4-8,3.3-12.5,2.6c-0.1,0-0.3,0-0.4,0l-3.7-0.4l3.4,1.2
		c1.4,0.5,2.9,0.7,4.7,0.7c0.4,0,0.9,0,1.3,0c3.8-0.2,7.3-1.7,10.5-4.6c2.5-2.3,4.7-5,6.5-8.3c0,0.1,0,0.2,0,0.2
		c0.1,0.7,0.6,1.2,1.3,1.2c0.1,0,0.2,0,0.2,0l0,0c0.5-0.1,0.9-0.3,1.1-0.7c0.2-0.3,0.3-0.7,0.2-1C58.2,55.8,57.5,55.4,56.7,55.6z"/>
	<path class="st9" d="M36.3,41.9c-0.2,0.3-0.3,0.7-0.2,1.1c0.2,0.7,0.6,1.1,1.2,1.1c0.1,0,0.3,0,0.4-0.1c0.4-0.1,0.8-0.3,1-0.7
		c0.2-0.3,0.3-0.7,0.2-1.1c-0.2-0.7-0.8-1.1-1.6-1C36.9,41.2,36.5,41.5,36.3,41.9z"/>
	<path class="st9" d="M70.6,53c-0.4-0.2-0.7-0.4-1-0.4c-0.4,0-0.7,0.2-1,0.5c-0.2,0.3-0.3,0.7-0.2,1c0.1,0.4,0.4,0.7,0.7,0.9
		c0.2,0.1,0.4,0.1,0.6,0.1c0.1,0,0.3,0,0.4-0.1c0.3-0.1,0.6-0.4,0.8-0.8c0.1-0.1,0.2-0.3,0.4-0.5l0.4-0.4l-0.5-0.2
		C70.9,53.1,70.7,53,70.6,53z"/>
	<path class="st9" d="M16.3,49.3c-0.1,0-0.2-0.1-0.3-0.1l-0.4-0.3l-0.2,0.4c-0.1,0.1-0.1,0.2-0.2,0.3c-0.2,0.3-0.4,0.6-0.4,1
		s0.3,0.6,0.6,0.9c0.1,0.1,0.2,0.1,0.2,0.2l0.2,0.2l0.3-0.1c0.5-0.3,0.9-0.5,1-0.9c0.1-0.2,0.1-0.5-0.1-0.8
		C16.9,49.6,16.6,49.4,16.3,49.3z"/>
	<path class="st9" d="M32.2,40.7c0.3,0.2,0.6,0.4,0.9,0.4c0,0,0,0,0.1,0c0.4,0,0.6-0.4,0.9-0.6c0.1-0.1,0.1-0.2,0.2-0.2l0.2-0.2
		l-0.2-0.8L34,39.2c-0.1,0-0.2-0.1-0.3-0.1c-0.3-0.2-0.7-0.4-1-0.2c-0.3,0.1-0.5,0.5-0.7,0.8c-0.1,0.1-0.1,0.2-0.2,0.3l-0.3,0.4
		l0.4,0.3C32,40.5,32.1,40.6,32.2,40.7z"/>
	<path class="st9" d="M57,59.5c-0.3-0.2-0.6-0.3-0.9-0.3c-0.4,0-0.7,0.2-0.9,0.5s-0.2,0.7,0,1c0.2,0.4,0.8,0.8,1.2,0.8h0.1
		c0.4,0,0.6-0.3,0.8-0.7c0.1-0.1,0.2-0.3,0.4-0.4l0.4-0.5l-0.6-0.2C57.3,59.6,57.1,59.5,57,59.5z"/>
	<path class="st9" d="M30.8,62.6c-0.5,0.1-0.9,0.8-0.9,1.3c0,0.4,0.3,0.6,0.6,0.8c0.1,0.1,0.3,0.2,0.4,0.3l0.5,0.4l0.2-0.6
		c0.1-0.2,0.2-0.3,0.2-0.4c0.2-0.3,0.4-0.7,0.2-1C31.9,63,31.3,62.5,30.8,62.6z"/>
	<path class="st9" d="M31.1,40.8l-0.4-0.3l-0.3,0.4c0,0.1-0.1,0.1-0.1,0.2c-0.2,0.2-0.4,0.5-0.4,0.8s0.3,0.5,0.5,0.8
		c0.1,0.1,0.2,0.2,0.3,0.3l0.5,0.5l0.3-0.6c0.1-0.2,0.1-0.3,0.2-0.4c0.2-0.3,0.3-0.6,0.2-0.9c-0.1-0.3-0.4-0.5-0.6-0.6
		C31.2,40.9,31.1,40.9,31.1,40.8z"/>
	<path class="st9" d="M33.3,62.9c-0.4,0.1-0.7,0.6-0.7,1c0,0.2,0,0.3,0.2,0.5c0.1,0.1,0.5,0.4,0.8,0.4l0,0c0.3,0,0.5-0.2,0.7-0.4
		c0.1-0.1,0.2-0.2,0.3-0.3l0.5-0.4l-0.6-0.3c-0.1-0.1-0.3-0.2-0.4-0.2C33.9,63,33.7,62.8,33.3,62.9z"/>
	<path class="st9" d="M56.5,62.2c-0.1,0-0.1-0.1-0.2-0.1l-0.4-0.2l-0.2,0.4c0,0.1-0.1,0.1-0.1,0.2c-0.1,0.2-0.3,0.4-0.3,0.8
		c0,0.3,0.3,0.5,0.5,0.7c0.1,0.1,0.2,0.1,0.3,0.2l0.5,0.4l0.2-0.6c0-0.1,0.1-0.2,0.1-0.3c0.1-0.3,0.2-0.5,0.2-0.8
		C57,62.4,56.7,62.3,56.5,62.2z"/>
	<path class="st9" d="M147.4,56.4c-19.6-16.7-42-23.3-66.7-19.7c-3.7-1.7-10.9-2.9-17.4-1c-4.8,1.4-8.6,4.1-11.2,8l-2.3,3.4l2.9-2.9
		c3.6-3.5,7.7-6.9,13.3-7.7c2.4-0.4,4.8-0.4,7.2-0.2c-3,0-5.8,0.7-8.5,2c-0.3,0.1-0.6,0.3-0.8,0.5l-2.3,1.9l2.8-1.2
		c2.1-0.9,4.1-1.4,6.2-1.5c-4.5,1-8.4,3.5-11.7,7.4c-1.7,1.9-3.2,4-4.7,6c-1,1.3-2,2.7-3,4c-1.5,1.8-3.2,4-5,5.9
		c-2.6,2.7-5.5,4.1-8.7,4.4v0.9c0.3,0,0.6,0,0.9,0c1.7,0,3.4-0.4,5.2-1.4c3.1-1.6,5.9-4,8.6-7.4c1.5-1.9,2.9-3.8,4.3-5.7
		c0.9-1.2,1.7-2.4,2.6-3.6c0.3-0.4,0.6-0.8,1-1.2c-1.7,4.4-0.3,9.8,3.4,12.4c2.7,1.9,6.5,1.7,8.5-0.6l2.8-3.1l-3.4,2.4
		C70.1,59.6,69,60,67.8,60c-2.6,0-4.6-1.3-6-4c-2.2-4.2-1.3-8.9,2.2-12.3c-0.1,0.1-0.1,0.2-0.2,0.3c-1.4,2.7-1.6,5.2-0.6,7.6
		c0.3,0.7,0.8,1.3,1.2,1.8l0.2,0.2c0.2,0.3,0.5,0.3,0.8,0.3c0.1,0,0.2,0,0.2,0l0.5,0.1v-0.5c0-0.1,0-0.1,0-0.2c0-0.2,0.1-0.5,0-0.7
		c-0.1-0.3-0.3-0.7-0.5-1c-0.1-0.3-0.3-0.6-0.4-0.9c-1.3-3.2-0.8-6.2,1.5-9c0.1-0.1,0.1-0.1,0.2-0.2c0.5,0.1,0.9,0.1,1.2,0
		c1-0.2,2-0.5,3-0.8c1.2-0.3,2.5-0.7,3.8-1c-1,1.3-1.7,2.8-2,4c-0.4,2.1,0.3,3.9,2,5.3c1.1,0.9,2.6,1.2,4.1,0.7
		c1.3-0.4,2.4-1.4,2.7-2.6c0.4-1.4,0.1-2.8-1.1-3.8c-0.8-0.8-2.2-0.9-3.3-0.4c-0.7,0.4-1.2,0.9-1.3,1.6c-0.1,0.7,0.1,1.4,0.6,2
		l1.6,1.7c-0.1,0-0.2,0-0.3,0.1c-1,0.1-1.9-0.3-2.6-1c-0.8-0.8-1.2-2.1-1.1-3.3c0.2-1.5,1.7-3.6,3.4-4.8c4.5-0.8,8.9-1.2,13.2-1.3
		c10.5,0.3,29.2,3.1,48.3,16.7c14,10,28.1,24.3,30.8,61.6c0,0,5,34.3-31.8,47.9c0,0-33.8,8.6-45.9-14.1c0,0-5.4-12.2-1.7-24.1
		l3.9-4.6l0.4,0.1c0,0,0-0.1,0.2-0.2c3.3-2.9,7.3-5.2,11.9-6.8c0.5-0.2,1.1-0.1,1.7,0c0.2,0,0.4,0,0.6,0.1c2.3,0.2,4.4,1,6.1,2.4
		l-1,0.3c-1.5,0.4-2.6,1.2-3.1,2.4c-0.9,2.3-2.8,2.8-5.1,3.3c-0.1,0-0.2,0-0.4,0.1c-0.2,0-0.5,0.1-0.7,0.1l-1.5,0.5l1.5,0.4
		c2.2,0.5,4.1,0,5.7-1.4c0.3,1.8,1.3,3.2,2.9,4.4c2.1,1.5,4.2,1.4,5.5,1.1c2.1-0.5,3.9-2,4.9-3.9c1.3-2.6,1.2-5.7-0.3-8.5
		c-1.3-2.5-3.5-4.1-6.1-4.6c1.7-0.7,3.5-1.5,5.1-2.9c1.8-1.6,2.9-3.6,3.2-6.2c0-0.2,0-0.4-0.4-0.6l-0.5-0.3l-0.2,0.8
		c0,0.1,0,0.3-0.1,0.4c0,0.2-0.1,0.4-0.2,0.6c-0.6,1.8-1.7,3.3-3.4,4.6c-1.3,1-3.8,2.2-5.8,2.9c1-1.2,1.5-2.6,1.4-4.3l-0.1-2.9
		l-0.8,2.8c-0.4,1.6-1.2,3-2.3,4c-1,1-2,1.6-3.1,1.9s-2.2,0.6-3.3,1c2.4-2.2,3.8-4.7,4.4-7.5c0.3-1.4,0.5-2.8,0.7-4.1
		c0.2-1.1,0.4-2.3,0.6-3.4c0.2-1.3,0.6-2.5,0.9-3.7l0.2-0.6l0.1-0.1c0.2,0,0.4,0,0.6,0c0.6-0.1,1.2-0.1,1.7,0.1
		c0.4,0.1,0.8,0.6,1.2,1.3c0.2,0.3,0.3,0.7,0.3,1.1c0,0.2,0.1,0.4,0.1,0.6l0.3,1.3l0.5-1.2c0.3-0.7,0.3-1.4-0.2-2.6l0.3,0.1
		c0.9,0.3,1.7,0.5,2.5,0.8l0.6,0.2c2.2,0.8,4.6,1.5,7.1,1.4c1.6-0.1,2,0.1,3.1,1.2l0.8,0.9v-1.2c0-0.8-0.3-1.1-1.2-1.7
		c1-0.6,1.7-1.4,2.1-2.4l0.7-1.7l-1.4,1.2L133,93c-0.1,0.1-0.2,0.1-0.3,0.2c-1.4,1.7-3.3,2.3-5.7,1.8c-2.3-0.5-4.7-1.2-6.9-1.9
		l-0.2-0.1c-1.7-0.5-3.6-1-5.5-0.8c0.5-1.6,2.7-4.4,5-5.9c2.6-1.8,5.6-2.6,8.1-3.1l3.7-0.8l-3.8-0.1h-0.1c-0.1,0-0.2,0-0.4,0
		c-5.7,0.6-10,3.2-12.7,7.6c0-0.1,0-0.2,0-0.4v-1.4l-0.8,1.2c-0.2,0.2-0.3,0.5-0.5,0.8c-0.3,0.6-0.7,1.2-1.1,1.6
		c-0.7,0.7-1.6,1.3-2.5,1.8c-1.8,0.8-3.3,1.8-4.7,3l0.9-3.6l0.4,0.3l2-1.4l1,0.7l-1-1.7l-0.3,0.1l0.2-0.2c-0.5-0.3-1.1-0.7-1.7-0.5
		c-0.1,0-0.3,0.1-0.4,0.2c0.1-4.6-1-9.1-3.2-13.9l-0.8,0.3V77c0,0.2,0.1,0.3,0.1,0.5c1.8,4.4,2.6,8.6,2.4,12.9
		c-0.1,3.5-1.1,7-2.8,10.6c-2,4.2-4.8,7.9-7.4,11.6l-0.1,0.2c-2.5,3.4-4.4,6.4-5.8,9.2c-2.2,3.9-3.6,7.4-4.2,11.9
		c-0.2,0.9-0.3,1.7-0.4,2.6h0.2c0,0.5-0.1,1-0.1,1.5c-0.8,15.7,7.5,28.2,22.3,33.4c6.4,2.3,12.7,3.4,18.8,3.4
		c11.5,0,22.3-4,32.3-12.1c12.3-9.9,18.7-23.2,19-39.6C177,95.5,167.2,73.4,147.4,56.4z M77.5,46c-0.5-1.2-0.2-1.6,0.4-1.9
		c0.3-0.1,0.5-0.2,0.7-0.2c0.5,0,1,0.3,1.4,1c0.4,0.6,0.4,1.4,0.1,2s-0.9,1.1-1.7,1.3L77.5,46z M113.9,112.2
		c1.2-0.3,2.4-0.3,3.7,0.1c3.4,0.9,6.2,4.9,6,8.5c-0.2,3.9-3.9,5.9-6.4,5.8c-1.3,0-2.7-0.8-3.7-2s-1.4-2.6-1.2-3.8
		c0.2-1,0.7-1.9,1.8-2.5l0.1-0.1c0.2-0.1,0.4-0.2,0.6-0.4l0.7-0.9l0.8,0.7l-0.2-1.2c-0.1-0.8-1-1.6-2.1-2.2c-0.9-0.5-1.8-0.8-2.7-1
		c-0.2,0-0.3-0.1-0.5-0.1C111.8,112.8,112.8,112.5,113.9,112.2z M112.8,93.4l-0.4,1.6c-0.3-0.4-0.6-0.9-1.1-1.1
		C111.8,93.6,112.3,93.5,112.8,93.4z M94.9,114.3l0.9,1.1l0.1-0.9l2-0.4v-0.3c0.1-0.7,0-1.2-0.4-1.6c-0.3-0.3-0.7-0.4-1.1-0.4l0,0
		c2.4-3.3,4.9-6.8,6.7-10.7c1.1-2.4,2.9-4.4,5.4-6c0.6-0.4,1.2-0.7,1.8-1l0,0c0.1,0.3,0.3,0.5,0.5,0.7c0.8,0.9,1.1,2,1,3
		c-0.3,1.9-0.7,3.8-1.1,5.6c-0.1,0.3-0.1,0.6-0.2,0.9c-0.3-1.1-0.7-1.7-1.5-1.9l-0.9-0.3l0.3,0.8c0.1,0.1,0.1,0.3,0.2,0.3l0.1,0.1
		c1,2.2,1,4-0.1,5.5c-0.5,0.7-1.1,1.3-1.7,1.9c-0.3,0.3-0.5,0.6-0.8,0.9l-0.5,0.5l0,0l-0.1,0.1c-1.3,0.9-2.7,1.8-4,2.6
		c-0.7,0.4-1.4,0.8-2.1,1.2c-0.8,0.5-1.6,1-2.4,1.5c-0.7,0.4-1.3,0.9-1.9,1.3c-0.1,0.1-0.2,0.1-0.3,0.2l-0.1-0.3
		c-0.3-1-0.6-1.9-0.9-2.9C94.2,115.4,94.5,114.9,94.9,114.3z M92.8,117.8l0.6,2.3c0.1,0.2,0,0.4-0.3,0.6c-1.1,1-2.1,2-3.1,3.1
		C90.9,121.7,91.8,119.7,92.8,117.8z"/>
</g>
<rect x="254.1" y="157.4" class="st4" width="239.1" height="17.6"/>
<text transform="matrix(1 0 0 1 244.8917 174.8002)" class="st5 st10 st11">Te acompañamos a líberar tu expresión</text>
</svg>
