<?xml version="1.0" encoding="UTF-8"?><svg id="a" xmlns="http://www.w3.org/2000/svg" viewBox="0 0 481.61 144.15"><defs><style>.b{stroke:#1d1d1b;stroke-width:.89px;}.b,.c,.d{stroke-miterlimit:10;}.b,.e{fill:none;}.f{fill:#a59fbe;}.f,.c{font-family:Gabriela-Regular, Gabriela;font-size:68px;}.f,.c,.g,.h{isolation:isolate;}.i{letter-spacing:-.07em;}.c,.d{fill:#ffaf3b;stroke:#ffaf3b;}.g{font-family:Marcellus-Regular, Marcellus;font-size:24px;}.g,.h{fill:#1d1d1b;}.h{font-family:Belleza-Regular, Belleza;font-size:16px;}</style></defs><text class="f" transform="translate(166.55 121.52)"><tspan x="0" y="0">ANZARTE</tspan></text><text class="c" transform="translate(166.55 121.52)"><tspan x="0" y="0">ANZARTE</tspan></text><rect class="e" x="179.4" y="45.77" width="115.2" height="27.1"/><text class="g" transform="translate(182.76 64.4)"><tspan x="0" y="0">Fundación</tspan></text><g><polygon class="b" points="55.6 6.17 91.3 134.87 160.4 89.07 55.6 6.17"/><line class="b" x1="160.4" y1="89.07" x2="77.5" y2="85.07"/><line class="b" x1="93.6" y1="97.47" x2="100.7" y2="97.87"/><line class="b" x1="110" y1="86.67" x2="93.6" y2="97.47"/><line class="b" x1="91.3" y1="134.87" x2="110" y2="86.67"/><line class="b" x1="99.3" y1="93.67" x2="97.9" y2="97.77"/><line class="b" x1="103" y1="104.67" x2="99.3" y2="93.67"/><line class="b" x1="77.5" y1="85.07" x2="103" y2="104.67"/></g><path class="d" d="M16.3,24.27l-1.6,.5c-.3,.1-.5,.2-.8,.3-.6,.2-1.4,.5-2.1,.6-1.3,.2-2.6-.3-3.4-1.1-.8-.9-1.2-2.1-.9-3.3,.1-.8,.6-1.5,1.3-2,.6-.4,1.4-.5,2.2-.3,.7,.2,1.2,.7,1.4,1.3,.2,.6,0,1.3-.4,1.8-.4,.4-1.1,.5-1.6,.2-.4-.3-.5-.6-.3-1.1,0-.1,.2-.3,.3-.4l.3-.3,.7-.9-1.1,.2c-.9,.2-1.4,.8-1.5,1.8,0,1,.4,1.8,1.4,2.1,1.1,.4,2.2,.2,3-.6,.9-.9,1.1-2,.7-3.2-.3-1-1-1.7-1.9-2.1-1-.4-2.2-.4-3.3,.1-1.1,.5-1.9,1.4-2.3,2.6-.4,1.2-.3,2.7,.3,3.9,.7,1.5,2.3,2.5,4.2,2.8,.3,0,.6,.1,.9,.1,1.4,0,2.8-.5,3.6-1.4l.9-1.6Z"/><path class="d" d="M29.1,21.17l1.6,.6-1.2-1.3c-.2-.2-.3-.4-.5-.5-.4-.4-.8-.8-1-1.2-.8-1.2-.7-2.5,.1-3.9,.7-1.1,1.6-1.5,2.9-1.4,.7,.1,1.3,.4,1.7,1,.3,.4,.4,1,.3,1.5-.2,.9-.9,1.5-1.7,1.4-.5-.1-1.2-.3-1.1-1.6l.1-2.1-.9,1.8c-.5,1-.4,1.8,.4,2.5,.8,.7,2.2,.9,3.2,.4,.9-.5,1.6-1.5,1.7-2.6,.1-1.1-.3-2.2-1.1-2.9-1-.8-2.3-1.2-3.5-1-1.3,.2-2.4,1-3.1,2.2-.8,1.3-.9,2.9-.4,4.4,.5,1.4,1.4,2.3,2.5,2.7Z"/><path class="d" d="M19.8,20.57l-.8-2.6c-.1-.3-.2-.7-.3-1-.2-.7-.4-1.4-.6-2-.4-1.9,0-3.7,1.4-5.9,.2-.3,.2-.7,.2-1v-.3l.1-.8-.8,.3c-.1,0-.2,.1-.3,.1-.3,.1-.6,.2-.9,.5-1,1-1.6,2.3-1.7,4-.2,2.2,.5,4.3,2,6.4l1.7,2.3Z"/><path class="d" d="M12.7,16.87c.1,.1,.3,.1,.4,.2l3.2,1.4-2.6-2.1c-2.9-2.3-5.8-2.8-8.7-1.6-.3,.1-.7,.4-.9,.6l.1-.1c.1-.2,.2-.3,.2-.4,.2-.3,.3-.6,.3-.9-.1-.4-.7-.9-1.2-.8-.4,.1-.8,.6-.8,1.1,0,.3,.2,.6,.5,.8l.3,.3,.3,.3-.1,.1-.3,.3c-.3,.3-.3,.8-.2,1.1,.2,.4,.8,.4,1.1,.3,.4-.1,.8-.3,1.2-.5,2.3-1.3,4.7-1.3,7.2-.1Z"/><path class="d" d="M38.5,19.07l1.2-2.3-1.9,1.7c-4,3.6-8.4,4.4-13.5,2.4l-3.2-1.1,2.8,2c1.7,1.2,3.8,1.8,6,1.8,.9,0,1.7-.1,2.6-.3,2.7-.6,4.9-2.2,6-4.2Z"/><path class="d" d="M26.2,27.57l3.9-1.8-4.2,1c-3.3,.8-5.8-.2-7.7-2.8l-.3-.4-.9,.7v.5c0,.2,0,.5,.1,.8,.5,1.2,1.5,2,2.8,2.4,.8,.3,1.7,.4,2.5,.4,1.4,0,2.6-.3,3.8-.8Z"/><path class="d" d="M14.9,16.07l1.8,2.5-1-2.8-.3-.9c-.2-.7-.5-1.3-.6-1.9-.8-3.5,.9-7.7,3.9-9.3,1.5-.8,3.1-.9,4.9-.2l.4-.8c-2.5-1.5-5.8-.9-7.9,1.5-2.9,3.2-3.4,7.8-1.4,11.6,.1,.1,.1,.2,.2,.3Z"/><path class="d" d="M42.4,21.37c-.2,0-.3,.1-.4,.2,.6-1.1,1.1-2.3,1.6-3.5l-.9-.4c-.3,.5-.5,.9-.8,1.4-.6,1-1.1,2-1.7,3-2.7,4.5-5.4,7.5-8.7,9.6-3.8,2.4-8,3.3-12.5,2.6h-.4l-3.7-.4,3.4,1.2c1.4,.5,2.9,.7,4.7,.7h1.3c3.8-.2,7.3-1.7,10.5-4.6,2.5-2.3,4.7-5,6.5-8.3v.2c.1,.7,.6,1.2,1.3,1.2h.2c.5-.1,.9-.3,1.1-.7,.2-.3,.3-.7,.2-1-.2-1-.9-1.4-1.7-1.2Z"/><path class="d" d="M22,7.67c-.2,.3-.3,.7-.2,1.1,.2,.7,.6,1.1,1.2,1.1,.1,0,.3,0,.4-.1,.4-.1,.8-.3,1-.7,.2-.3,.3-.7,.2-1.1-.2-.7-.8-1.1-1.6-1-.4,0-.8,.3-1,.7Z"/><path class="d" d="M56.3,18.77c-.4-.2-.7-.4-1-.4-.4,0-.7,.2-1,.5-.2,.3-.3,.7-.2,1,.1,.4,.4,.7,.7,.9,.2,.1,.4,.1,.6,.1,.1,0,.3,0,.4-.1,.3-.1,.6-.4,.8-.8,.1-.1,.2-.3,.4-.5l.4-.4-.5-.2c-.3,0-.5-.1-.6-.1Z"/><path class="d" d="M2,15.07c-.1,0-.2-.1-.3-.1l-.4-.3-.2,.4c-.1,.1-.1,.2-.2,.3-.2,.3-.4,.6-.4,1s.3,.6,.6,.9c.1,.1,.2,.1,.2,.2l.2,.2,.3-.1c.5-.3,.9-.5,1-.9,.1-.2,.1-.5-.1-.8-.1-.5-.4-.7-.7-.8Z"/><path class="d" d="M17.9,6.47c.3,.2,.6,.4,.9,.4h.1c.4,0,.6-.4,.9-.6,.1-.1,.1-.2,.2-.2l.2-.2-.2-.8-.3-.1c-.1,0-.2-.1-.3-.1-.3-.2-.7-.4-1-.2-.3,.1-.5,.5-.7,.8-.1,.1-.1,.2-.2,.3l-.3,.4,.4,.3c.1-.2,.2-.1,.3,0Z"/><path class="d" d="M42.7,25.27c-.3-.2-.6-.3-.9-.3-.4,0-.7,.2-.9,.5s-.2,.7,0,1c.2,.4,.8,.8,1.2,.8h.1c.4,0,.6-.3,.8-.7,.1-.1,.2-.3,.4-.4l.4-.5-.6-.2c-.2-.1-.4-.2-.5-.2Z"/><path class="d" d="M16.5,28.37c-.5,.1-.9,.8-.9,1.3,0,.4,.3,.6,.6,.8,.1,.1,.3,.2,.4,.3l.5,.4,.2-.6c.1-.2,.2-.3,.2-.4,.2-.3,.4-.7,.2-1-.1-.4-.7-.9-1.2-.8Z"/><path class="d" d="M16.8,6.57l-.4-.3-.3,.4c0,.1-.1,.1-.1,.2-.2,.2-.4,.5-.4,.8s.3,.5,.5,.8l.3,.3,.5,.5,.3-.6c.1-.2,.1-.3,.2-.4,.2-.3,.3-.6,.2-.9-.1-.3-.4-.5-.6-.6-.1-.1-.2-.1-.2-.2Z"/><path class="d" d="M19,28.67c-.4,.1-.7,.6-.7,1,0,.2,0,.3,.2,.5,.1,.1,.5,.4,.8,.4h0c.3,0,.5-.2,.7-.4l.3-.3,.5-.4-.6-.3c-.1-.1-.3-.2-.4-.2-.2-.2-.4-.4-.8-.3Z"/><path class="d" d="M42.2,27.97c-.1,0-.1-.1-.2-.1l-.4-.2-.2,.4c0,.1-.1,.1-.1,.2-.1,.2-.3,.4-.3,.8,0,.3,.3,.5,.5,.7,.1,.1,.2,.1,.3,.2l.5,.4,.2-.6c0-.1,.1-.2,.1-.3,.1-.3,.2-.5,.2-.8-.1-.5-.4-.6-.6-.7Z"/><path class="d" d="M133.1,22.17C113.5,5.47,91.1-1.13,66.4,2.47c-3.7-1.7-10.9-2.9-17.4-1-4.8,1.4-8.6,4.1-11.2,8l-2.3,3.4,2.9-2.9c3.6-3.5,7.7-6.9,13.3-7.7,2.4-.4,4.8-.4,7.2-.2-3,0-5.8,.7-8.5,2-.3,.1-.6,.3-.8,.5l-2.3,1.9,2.8-1.2c2.1-.9,4.1-1.4,6.2-1.5-4.5,1-8.4,3.5-11.7,7.4-1.7,1.9-3.2,4-4.7,6-1,1.3-2,2.7-3,4-1.5,1.8-3.2,4-5,5.9-2.6,2.7-5.5,4.1-8.7,4.4v.9h.9c1.7,0,3.4-.4,5.2-1.4,3.1-1.6,5.9-4,8.6-7.4,1.5-1.9,2.9-3.8,4.3-5.7,.9-1.2,1.7-2.4,2.6-3.6,.3-.4,.6-.8,1-1.2-1.7,4.4-.3,9.8,3.4,12.4,2.7,1.9,6.5,1.7,8.5-.6l2.8-3.1-3.4,2.4c-1.3,1.2-2.4,1.6-3.6,1.6-2.6,0-4.6-1.3-6-4-2.2-4.2-1.3-8.9,2.2-12.3-.1,.1-.1,.2-.2,.3-1.4,2.7-1.6,5.2-.6,7.6,.3,.7,.8,1.3,1.2,1.8l.2,.2c.2,.3,.5,.3,.8,.3h.2l.5,.1v-.7c0-.2,.1-.5,0-.7-.1-.3-.3-.7-.5-1-.1-.3-.3-.6-.4-.9-1.3-3.2-.8-6.2,1.5-9l.2-.2c.5,.1,.9,.1,1.2,0,1-.2,2-.5,3-.8,1.2-.3,2.5-.7,3.8-1-1,1.3-1.7,2.8-2,4-.4,2.1,.3,3.9,2,5.3,1.1,.9,2.6,1.2,4.1,.7,1.3-.4,2.4-1.4,2.7-2.6,.4-1.4,.1-2.8-1.1-3.8-.8-.8-2.2-.9-3.3-.4-.7,.4-1.2,.9-1.3,1.6-.1,.7,.1,1.4,.6,2l1.6,1.7c-.1,0-.2,0-.3,.1-1,.1-1.9-.3-2.6-1-.8-.8-1.2-2.1-1.1-3.3,.2-1.5,1.7-3.6,3.4-4.8,4.5-.8,8.9-1.2,13.2-1.3,10.5,.3,29.2,3.1,48.3,16.7,14,10,28.1,24.3,30.8,61.6,0,0,5,34.3-31.8,47.9,0,0-33.8,8.6-45.9-14.1,0,0-5.4-12.2-1.7-24.1l3.9-4.6,.4,.1s0-.1,.2-.2c3.3-2.9,7.3-5.2,11.9-6.8,.5-.2,1.1-.1,1.7,0,.2,0,.4,0,.6,.1,2.3,.2,4.4,1,6.1,2.4l-1,.3c-1.5,.4-2.6,1.2-3.1,2.4-.9,2.3-2.8,2.8-5.1,3.3-.1,0-.2,0-.4,.1-.2,0-.5,.1-.7,.1l-1.5,.5,1.5,.4c2.2,.5,4.1,0,5.7-1.4,.3,1.8,1.3,3.2,2.9,4.4,2.1,1.5,4.2,1.4,5.5,1.1,2.1-.5,3.9-2,4.9-3.9,1.3-2.6,1.2-5.7-.3-8.5-1.3-2.5-3.5-4.1-6.1-4.6,1.7-.7,3.5-1.5,5.1-2.9,1.8-1.6,2.9-3.6,3.2-6.2,0-.2,0-.4-.4-.6l-.5-.3-.2,.8c0,.1,0,.3-.1,.4,0,.2-.1,.4-.2,.6-.6,1.8-1.7,3.3-3.4,4.6-1.3,1-3.8,2.2-5.8,2.9,1-1.2,1.5-2.6,1.4-4.3l-.1-2.9-.8,2.8c-.4,1.6-1.2,3-2.3,4-1,1-2,1.6-3.1,1.9s-2.2,.6-3.3,1c2.4-2.2,3.8-4.7,4.4-7.5,.3-1.4,.5-2.8,.7-4.1,.2-1.1,.4-2.3,.6-3.4,.2-1.3,.6-2.5,.9-3.7l.2-.6,.1-.1h.6c.6-.1,1.2-.1,1.7,.1,.4,.1,.8,.6,1.2,1.3,.2,.3,.3,.7,.3,1.1,0,.2,.1,.4,.1,.6l.3,1.3,.5-1.2c.3-.7,.3-1.4-.2-2.6l.3,.1c.9,.3,1.7,.5,2.5,.8l.6,.2c2.2,.8,4.6,1.5,7.1,1.4,1.6-.1,2,.1,3.1,1.2l.8,.9v-1.2c0-.8-.3-1.1-1.2-1.7,1-.6,1.7-1.4,2.1-2.4l.7-1.7-1.4,1.2-.1,.1c-.1,.1-.2,.1-.3,.2-1.4,1.7-3.3,2.3-5.7,1.8-2.3-.5-4.7-1.2-6.9-1.9l-.2-.1c-1.7-.5-3.6-1-5.5-.8,.5-1.6,2.7-4.4,5-5.9,2.6-1.8,5.6-2.6,8.1-3.1l3.7-.8-3.8-.1h-.5c-5.7,.6-10,3.2-12.7,7.6v-1.8l-.8,1.2c-.2,.2-.3,.5-.5,.8-.3,.6-.7,1.2-1.1,1.6-.7,.7-1.6,1.3-2.5,1.8-1.8,.8-3.3,1.8-4.7,3l.9-3.6,.4,.3,2-1.4,1,.7-1-1.7-.3,.1,.2-.2c-.5-.3-1.1-.7-1.7-.5-.1,0-.3,.1-.4,.2,.1-4.6-1-9.1-3.2-13.9l-.8,.3v.2c0,.2,.1,.3,.1,.5,1.8,4.4,2.6,8.6,2.4,12.9-.1,3.5-1.1,7-2.8,10.6-2,4.2-4.8,7.9-7.4,11.6l-.1,.2c-2.5,3.4-4.4,6.4-5.8,9.2-2.2,3.9-3.6,7.4-4.2,11.9-.2,.9-.3,1.7-.4,2.6h.2c0,.5-.1,1-.1,1.5-.8,15.7,7.5,28.2,22.3,33.4,6.4,2.3,12.7,3.4,18.8,3.4,11.5,0,22.3-4,32.3-12.1,12.3-9.9,18.7-23.2,19-39.6,1-27.6-8.8-49.7-28.6-66.7ZM63.2,11.77c-.5-1.2-.2-1.6,.4-1.9,.3-.1,.5-.2,.7-.2,.5,0,1,.3,1.4,1,.4,.6,.4,1.4,.1,2s-.9,1.1-1.7,1.3l-.9-2.2Zm36.4,66.2c1.2-.3,2.4-.3,3.7,.1,3.4,.9,6.2,4.9,6,8.5-.2,3.9-3.9,5.9-6.4,5.8-1.3,0-2.7-.8-3.7-2s-1.4-2.6-1.2-3.8c.2-1,.7-1.9,1.8-2.5l.1-.1c.2-.1,.4-.2,.6-.4l.7-.9,.8,.7-.2-1.2c-.1-.8-1-1.6-2.1-2.2-.9-.5-1.8-.8-2.7-1-.2,0-.3-.1-.5-.1,1-.3,2-.6,3.1-.9Zm-1.1-18.8l-.4,1.6c-.3-.4-.6-.9-1.1-1.1,.5-.3,1-.4,1.5-.5Zm-17.9,20.9l.9,1.1,.1-.9,2-.4v-.3c.1-.7,0-1.2-.4-1.6-.3-.3-.7-.4-1.1-.4h0c2.4-3.3,4.9-6.8,6.7-10.7,1.1-2.4,2.9-4.4,5.4-6,.6-.4,1.2-.7,1.8-1h0c.1,.3,.3,.5,.5,.7,.8,.9,1.1,2,1,3-.3,1.9-.7,3.8-1.1,5.6-.1,.3-.1,.6-.2,.9-.3-1.1-.7-1.7-1.5-1.9l-.9-.3,.3,.8c.1,.1,.1,.3,.2,.3l.1,.1c1,2.2,1,4-.1,5.5-.5,.7-1.1,1.3-1.7,1.9-.3,.3-.5,.6-.8,.9l-.5,.5h0l-.1,.1c-1.3,.9-2.7,1.8-4,2.6l-2.1,1.2-2.4,1.5c-.7,.4-1.3,.9-1.9,1.3-.1,.1-.2,.1-.3,.2l-.1-.3c-.3-1-.6-1.9-.9-2.9,.4-.4,.7-.9,1.1-1.5Zm-2.1,3.5l.6,2.3c.1,.2,0,.4-.3,.6-1.1,1-2.1,2-3.1,3.1,.9-2.1,1.8-4.1,2.8-6Z"/><text class="h" transform="translate(232.62 140.57)"><tspan class="i" x="0" y="0">T</tspan><tspan x="7.36" y="0">e acompañamos a liberar tu expresión</tspan></text></svg>