<?xml version="1.0" encoding="UTF-8"?><svg id="a" xmlns="http://www.w3.org/2000/svg" viewBox="0 0 481.59 142.07"><defs><style>.b{fill:#da9a82;font-family:Belleza-Regular, Belleza;font-size:16px;}.b,.c,.d,.e,.f{stroke-miterlimit:10;}.b,.e{stroke:#da9a82;}.c{fill:#a59fbe;font-family:Gabriela-Regular, Gabriela;font-size:68px;stroke:#a59fbe;}.d{fill:#269e91;stroke:#269e91;}.e{fill:none;stroke-width:.89px;}.g{letter-spacing:-.02em;}.h{letter-spacing:-.1em;}.f{fill:#fbae3c;font-family:Marcellus-Regular, Marcellus;font-size:24px;letter-spacing:-.02em;stroke:#fbae3c;}</style></defs><text class="c" transform="translate(166.53 121.51)"><tspan x="0" y="0">ANZARTE</tspan></text><text class="f" transform="translate(179.39 66.21)"><tspan x="0" y="0">Fundación</tspan></text><g><polygon class="e" points="55.58 6.12 91.3 134.82 160.34 89.08 55.58 6.12"/><line class="e" x1="160.34" y1="89.08" x2="77.5" y2="85.08"/><line class="e" x1="93.61" y1="97.47" x2="100.7" y2="97.85"/><line class="e" x1="109.94" y1="86.65" x2="93.61" y2="97.47"/><line class="e" x1="91.3" y1="134.82" x2="109.94" y2="86.65"/><line class="e" x1="99.31" y1="93.69" x2="97.83" y2="97.77"/><line class="e" x1="102.97" y1="104.66" x2="99.31" y2="93.69"/><line class="e" x1="77.5" y1="85.08" x2="102.97" y2="104.66"/></g><g><path class="d" d="M16.29,24.26l-1.57,.5c-.26,.08-.53,.18-.82,.29-.64,.24-1.37,.52-2.09,.6-1.32,.16-2.56-.26-3.41-1.14-.81-.86-1.16-2.05-.95-3.28,.15-.84,.6-1.55,1.28-1.98,.64-.41,1.42-.53,2.18-.33,.65,.17,1.16,.67,1.35,1.32,.19,.63,.05,1.29-.38,1.77-.36,.41-1.14,.52-1.59,.23-.4-.26-.51-.62-.34-1.11,.04-.12,.16-.26,.3-.43,.09-.1,.18-.21,.27-.34l.68-.9-1.11,.2c-.93,.16-1.42,.77-1.46,1.79-.04,1.02,.44,1.76,1.35,2.08,1.13,.4,2.2,.17,3.02-.63,.86-.85,1.12-2,.72-3.23-.31-.96-.99-1.71-1.93-2.12-1.02-.45-2.22-.41-3.27,.08-1.07,.5-1.88,1.41-2.28,2.56-.43,1.24-.32,2.65,.29,3.88,.75,1.49,2.31,2.53,4.18,2.79,.29,.04,.58,.06,.86,.06,1.44,0,2.75-.52,3.6-1.45l1.11-1.22Z"/><path class="d" d="M29.12,21.16l1.65,.56-1.18-1.28c-.16-.18-.34-.35-.52-.53-.37-.37-.76-.75-1.03-1.18-.77-1.21-.74-2.51,.12-3.88,.68-1.08,1.64-1.54,2.86-1.37,.71,.1,1.3,.44,1.67,.95,.32,.44,.44,.98,.34,1.52-.16,.86-.93,1.53-1.67,1.44-.55-.06-1.16-.3-1.09-1.65l.11-2.05-.95,1.82c-.5,.97-.38,1.82,.35,2.55,.76,.74,2.18,.91,3.17,.36,.93-.51,1.56-1.49,1.66-2.61,.11-1.12-.32-2.2-1.14-2.88-1.02-.84-2.26-1.18-3.49-.96-1.25,.22-2.37,1.03-3.06,2.21-.76,1.3-.89,2.93-.35,4.36,.47,1.26,1.41,2.21,2.56,2.6Z"/><path class="d" d="M19.76,20.59l-.78-2.63c-.1-.33-.2-.66-.3-.98-.22-.7-.43-1.36-.57-2.03-.39-1.88,.04-3.71,1.39-5.91,.18-.3,.21-.65,.23-.96,0-.11,.01-.23,.03-.33l.13-.82-.75,.34c-.11,.05-.22,.09-.33,.13-.3,.11-.63,.23-.89,.48-1,1-1.57,2.35-1.69,4.01-.16,2.21,.49,4.32,1.97,6.45l1.56,2.25Z"/><path class="d" d="M12.71,16.86c.13,.06,.27,.12,.4,.18l3.25,1.39-2.62-2.07c-2.94-2.32-5.78-2.84-8.7-1.58-.35,.15-.65,.37-.94,.61l.07-.15c.07-.15,.15-.28,.22-.39,.17-.29,.33-.56,.26-.88-.1-.42-.7-.91-1.15-.82-.42,.08-.86,.64-.86,1.08,0,.33,.24,.55,.49,.79,.1,.09,.21,.2,.32,.32l.31,.35s-.09,.08-.14,.12l-.28,.26c-.3,.27-.25,.79-.16,1.05,.15,.43,.82,.41,1.05,.33,.38-.13,.77-.3,1.17-.51,2.35-1.25,4.74-1.27,7.3-.08Z"/><path class="d" d="M38.47,19.06l1.25-2.28-1.93,1.73c-3.96,3.56-8.38,4.35-13.52,2.43l-3.2-1.2,2.79,1.97c1.68,1.19,3.82,1.82,6.01,1.82,.87,0,1.75-.1,2.61-.3,2.69-.62,4.88-2.15,5.99-4.18Z"/><path class="d" d="M26.17,27.55l3.89-1.78-4.18,.95c-3.31,.75-5.82-.15-7.66-2.77l-.27-.38-.86,.68,.03,.25c.01,.09,.01,.18,.02,.27,.01,.25,.03,.52,.14,.79,.51,1.17,1.47,1.98,2.85,2.41,.83,.26,1.66,.39,2.49,.39,1.19,0,2.38-.27,3.55-.81Z"/><path class="d" d="M14.9,16.05l1.84,2.54-.98-2.83c-.11-.32-.23-.63-.34-.94-.25-.66-.48-1.28-.63-1.92-.82-3.52,.91-7.71,3.86-9.32,1.54-.84,3.15-.91,4.92-.2l.39-.79c-2.51-1.52-5.77-.88-7.93,1.54-2.85,3.2-3.39,7.86-1.35,11.6,.06,.11,.14,.21,.22,.32Z"/><path class="d" d="M42.37,21.31c-.17,.04-.31,.1-.44,.17,.56-1.11,1.08-2.26,1.57-3.49l-.8-.38c-.26,.47-.52,.94-.78,1.41-.56,1.02-1.12,2.04-1.72,3.04-2.66,4.47-5.42,7.52-8.69,9.6-3.82,2.43-8.02,3.3-12.48,2.59-.14-.02-.27-.03-.41-.04l-3.72-.37,3.36,1.21c1.37,.5,2.88,.73,4.68,.73,.42,0,.85-.01,1.3-.04,3.84-.22,7.28-1.74,10.51-4.64,2.55-2.28,4.69-5.04,6.49-8.32,0,.08,0,.16,.02,.25,.12,.73,.61,1.16,1.31,1.16,.08,0,.16,0,.24-.02h.02c.47-.09,.85-.33,1.07-.68,.2-.31,.25-.68,.16-1.04-.23-.9-.86-1.33-1.69-1.14Z"/><path class="d" d="M21.94,7.64c-.21,.34-.27,.73-.15,1.06,.24,.71,.64,1.07,1.17,1.07,.13,0,.27-.02,.42-.07,.44-.1,.8-.34,1.02-.69,.2-.31,.25-.69,.16-1.05-.19-.75-.8-1.14-1.58-1.03-.41,.06-.79,.32-1.03,.71Z"/><path class="d" d="M56.27,18.72c-.36-.21-.67-.4-1.04-.36-.4,.03-.75,.23-.96,.53-.21,.29-.27,.67-.17,1.05,.1,.41,.35,.74,.69,.92,.17,.09,.36,.14,.56,.14,.14,0,.29-.03,.43-.08,.34-.12,.56-.42,.8-.75,.1-.14,.22-.31,.36-.47l.37-.44-.52-.25c-.2-.1-.37-.2-.52-.29Z"/><path class="d" d="M2.01,15.05c-.09-.05-.19-.1-.27-.15l-.39-.25-.23,.4c-.05,.09-.12,.18-.18,.27-.2,.28-.42,.59-.43,.97,0,.39,.34,.64,.64,.85,.09,.06,.18,.13,.25,.19l.22,.19,.26-.12c.54-.25,.86-.55,.99-.9,.06-.18,.1-.47-.07-.82-.16-.32-.49-.49-.78-.64Z"/><path class="d" d="M17.87,6.45c.26,.21,.56,.45,.93,.45,.02,0,.04,0,.06,0,.39-.03,.64-.36,.86-.65,.07-.09,.13-.18,.2-.25l.17-.18-.21-.79-.2-.08c-.09-.04-.18-.09-.27-.14-.32-.17-.67-.37-1.03-.22-.35,.15-.54,.48-.72,.77-.06,.09-.11,.19-.17,.27l-.28,.38,.4,.25c.09,.06,.17,.13,.26,.19Z"/><path class="d" d="M42.67,25.22c-.32-.16-.61-.3-.92-.28-.39,.01-.72,.2-.91,.51-.19,.3-.2,.69-.04,1.04,.2,.42,.78,.78,1.24,.78,.04,0,.07,0,.1,0,.36-.05,.58-.33,.83-.66,.1-.13,.22-.28,.36-.43l.43-.47-.59-.24c-.19-.08-.36-.16-.5-.23Z"/><path class="d" d="M16.47,28.35c-.47,.11-.94,.78-.89,1.26,.04,.36,.33,.58,.65,.81,.12,.09,.26,.2,.4,.32l.46,.4,.24-.56c.07-.16,.15-.31,.22-.44,.18-.34,.35-.66,.23-.99-.15-.44-.83-.91-1.31-.81Z"/><path class="d" d="M16.73,6.6l-.37-.27-.26,.39c-.04,.06-.09,.12-.14,.19-.17,.21-.39,.47-.37,.8,.01,.33,.25,.54,.51,.76,.1,.09,.22,.19,.34,.32l.47,.49,.26-.62c.07-.16,.14-.29,.2-.41,.15-.3,.3-.58,.2-.89-.1-.32-.39-.49-.63-.62-.07-.04-.14-.08-.2-.12Z"/><path class="d" d="M19.01,28.71c-.39,.12-.69,.61-.74,.99-.02,.17,.04,.34,.19,.5,.13,.14,.46,.4,.78,.4h.03c.29-.02,.5-.2,.72-.4,.09-.08,.18-.17,.3-.26l.53-.41-.58-.33c-.14-.08-.26-.16-.36-.23-.28-.19-.54-.37-.86-.27Z"/><path class="d" d="M42.15,27.97c-.06-.03-.13-.05-.18-.08l-.39-.22-.21,.39c-.03,.06-.07,.11-.11,.17-.13,.2-.3,.45-.29,.75,.02,.32,.28,.5,.53,.68,.09,.06,.2,.14,.31,.22l.49,.4,.21-.6c.04-.13,.09-.24,.14-.34,.12-.28,.24-.54,.15-.82-.09-.32-.4-.45-.64-.55Z"/><path class="d" d="M133.1,22.2C113.53,5.47,91.14-1.13,66.4,2.47c-3.74-1.72-10.93-2.88-17.42-1.03-4.84,1.38-8.6,4.06-11.18,7.95l-2.27,3.43,2.94-2.87c3.59-3.5,7.69-6.85,13.34-7.73,2.39-.37,4.79-.42,7.24-.17-2.98,.05-5.84,.71-8.5,1.99-.3,.14-.56,.31-.82,.52l-2.34,1.91,2.79-1.16c2.11-.88,4.15-1.38,6.15-1.52-4.46,1.03-8.38,3.51-11.67,7.39-1.65,1.94-3.2,4.02-4.7,6.03-.98,1.32-2,2.68-3.03,3.99-1.46,1.84-3.16,3.97-5.02,5.86-2.63,2.68-5.49,4.13-8.72,4.43v.88c.3,.03,.6,.04,.91,.04,1.7,0,3.42-.45,5.22-1.36,3.11-1.57,5.93-4,8.62-7.41,1.47-1.86,2.88-3.8,4.25-5.68,.87-1.19,1.74-2.38,2.62-3.56,.31-.41,.63-.81,.95-1.21-1.67,4.36-.32,9.8,3.36,12.44,2.65,1.9,6.47,1.65,8.5-.56l2.81-3.06-3.39,2.4c-1.29,.91-2.39,1.33-3.57,1.35-2.64,.04-4.6-1.27-6.05-4.02-2.21-4.21-1.35-8.87,2.23-12.31-.06,.11-.12,.23-.18,.34-1.39,2.72-1.59,5.19-.63,7.55,.28,.69,.77,1.27,1.23,1.84l.15,.18c.21,.26,.54,.29,.81,.31,.08,0,.15,.01,.22,.03l.5,.11,.03-.51c0-.07,.02-.13,.03-.2,.03-.22,.08-.48-.03-.74-.14-.34-.3-.67-.47-1-.15-.3-.3-.6-.42-.91-1.3-3.2-.78-6.23,1.55-9.01,.05-.07,.13-.12,.19-.18,.48,.11,.9,.06,1.23-.02,1-.24,2-.5,2.99-.77,1.25-.33,2.53-.66,3.81-.95-.97,1.26-1.73,2.8-1.95,4-.38,2.08,.3,3.9,1.97,5.25,1.1,.9,2.63,1.17,4.09,.73,1.34-.41,2.36-1.38,2.72-2.59,.43-1.44,.05-2.77-1.1-3.84-.84-.78-2.23-.95-3.31-.4-.7,.35-1.15,.93-1.28,1.61-.13,.69,.11,1.43,.64,2.02l1.56,1.72c-.11,.02-.22,.04-.34,.05-.97,.1-1.89-.25-2.61-.99-.83-.85-1.22-2.09-1.06-3.32,.2-1.53,1.7-3.61,3.44-4.8,4.48-.76,8.87-1.18,13.18-1.3,10.48,.3,29.19,3.05,48.3,16.73,14,10.02,28.06,24.33,30.83,61.57,0,0,4.98,34.29-31.79,47.93,0,0-33.77,8.58-45.93-14.1,0,0-5.35-12.15-1.68-24.12l3.87-4.6,.45,.07s.04-.07,.18-.19c3.34-2.91,7.34-5.22,11.88-6.84,.46-.17,1.08-.09,1.68-.02,.21,.02,.42,.05,.62,.06,2.31,.17,4.36,.98,6.09,2.39l-1.04,.28c-1.53,.41-2.59,1.24-3.06,2.41-.92,2.29-2.85,2.84-5.08,3.26-.12,.02-.24,.04-.37,.05-.24,.03-.49,.06-.74,.14l-1.5,.49,1.54,.36c2.21,.51,4.11,.04,5.66-1.4,.32,1.79,1.27,3.22,2.88,4.36,2.14,1.52,4.2,1.43,5.54,1.09,2.07-.53,3.93-2.02,4.85-3.89,1.27-2.58,1.16-5.75-.3-8.46-1.32-2.47-3.51-4.13-6.05-4.64,1.67-.66,3.48-1.55,5.09-2.94,1.83-1.59,2.87-3.62,3.2-6.2,.02-.18-.03-.43-.39-.65l-.54-.32-.15,.8c-.02,.13-.05,.25-.08,.38-.05,.2-.1,.39-.16,.58-.56,1.79-1.68,3.3-3.42,4.61-1.31,.98-3.8,2.22-5.75,2.93,1-1.18,1.46-2.58,1.4-4.25l-.11-2.9-.76,2.8c-.45,1.65-1.21,2.97-2.32,4.05-1.04,1.01-1.99,1.59-3.07,1.87-1.1,.28-2.16,.62-3.28,.98,2.39-2.24,3.84-4.69,4.42-7.48,.28-1.37,.52-2.76,.74-4.11,.19-1.15,.39-2.3,.61-3.44,.25-1.25,.59-2.52,.92-3.74l.16-.58s.09-.1,.07-.1c.2,0,.39-.02,.59-.04,.64-.05,1.25-.1,1.75,.07,.38,.13,.83,.59,1.25,1.27,.18,.31,.26,.7,.35,1.13,.04,.2,.08,.4,.13,.59l.35,1.3,.49-1.25c.29-.74,.26-1.38-.2-2.64l.33,.1c.86,.26,1.7,.52,2.52,.79l.6,.2c2.25,.76,4.56,1.54,7.09,1.38,1.57-.1,2,.07,3.07,1.23l.82,.88-.05-1.2c-.03-.77-.31-1.1-1.18-1.66,1-.63,1.68-1.43,2.08-2.42l.69-1.73-1.39,1.23-.08,.07c-.08,.07-.17,.14-.26,.24-1.38,1.7-3.31,2.29-5.73,1.75-2.33-.52-4.67-1.22-6.94-1.9l-.22-.07c-1.71-.51-3.55-.96-5.54-.81,.49-1.56,2.71-4.39,5.01-5.92,2.64-1.76,5.56-2.55,8.07-3.1l3.73-.81-3.81-.07h-.13c-.12-.01-.25-.02-.37,0-5.72,.61-9.98,3.16-12.68,7.59,0-.12,0-.24,0-.36l-.05-1.44-.77,1.22c-.16,.25-.31,.51-.46,.78-.33,.58-.67,1.18-1.12,1.64-.7,.72-1.57,1.35-2.46,1.76-1.78,.82-3.32,1.82-4.67,3.03l.91-3.64,.44,.27,2.04-1.41,.98,.67-1.02-1.75-.28,.13,.17-.24c-.47-.33-1.1-.69-1.72-.52-.13,.04-.26,.09-.37,.17,.11-4.58-.96-9.13-3.23-13.86l-.82,.32,.05,.18c.04,.16,.09,.31,.15,.46,1.8,4.39,2.59,8.61,2.41,12.9-.15,3.51-1.06,6.97-2.78,10.57-1.98,4.15-4.75,7.92-7.43,11.56l-.11,.15c-2.53,3.44-4.37,6.35-5.81,9.18-2.24,3.88-3.57,7.41-4.22,11.9-.18,.86-.33,1.72-.45,2.57l.16,.02c-.04,.49-.08,.99-.1,1.5-.82,15.66,7.53,28.16,22.35,33.44,6.42,2.29,12.68,3.43,18.77,3.43,11.45,0,22.27-4.05,32.33-12.12,12.29-9.86,18.67-23.18,18.96-39.58,.48-26.74-9.32-48.88-29.12-65.81ZM63.19,11.8c-.48-1.16-.21-1.58,.38-1.89,.26-.13,.51-.2,.75-.2,.54,0,1.03,.33,1.4,.97,.37,.64,.39,1.37,.07,2.01-.32,.63-.94,1.09-1.69,1.28l-.9-2.17Zm36.37,66.18c1.19-.3,2.45-.27,3.74,.08,3.39,.93,6.2,4.89,6,8.48-.21,3.9-3.87,5.87-6.41,5.76-1.31-.05-2.68-.78-3.66-1.95-.97-1.16-1.42-2.55-1.24-3.82,.15-1.04,.74-1.86,1.82-2.5l.15-.08c.19-.1,.41-.22,.58-.43l.73-.87,.8,.66-.21-1.18c-.14-.77-.96-1.63-2.14-2.24-.92-.47-1.84-.8-2.74-.98-.17-.03-.33-.06-.5-.08,1.02-.29,2.05-.57,3.08-.83Zm-1.05-18.85l-.4,1.6c-.25-.45-.61-.85-1.12-1.14,.5-.18,1.01-.33,1.52-.46Zm-17.92,20.96l.87,1.05,.14-.86,2.03-.4,.05-.31c.1-.69-.03-1.21-.4-1.56-.27-.26-.65-.39-1.14-.4h0c2.41-3.36,4.9-6.82,6.68-10.66,1.12-2.43,2.88-4.39,5.39-6,.58-.37,1.18-.7,1.79-.97l.02,.03c.14,.26,.32,.47,.5,.68,.79,.94,1.14,1.99,.99,2.96-.3,1.88-.73,3.78-1.14,5.62-.07,.3-.13,.6-.2,.9-.27-1.09-.69-1.68-1.5-1.92l-.87-.26,.34,.84c.06,.15,.15,.25,.22,.33,.02,.03,.06,.07,.07,.08,1.03,2.21,.99,3.97-.12,5.51-.48,.67-1.05,1.26-1.66,1.89-.27,.28-.54,.57-.8,.85l-.46,.51h0l-.1,.07c-1.31,.87-2.66,1.77-4.02,2.61-.69,.43-1.39,.84-2.09,1.25-.82,.48-1.64,.96-2.45,1.47-.67,.42-1.3,.9-1.91,1.35-.09,.07-.18,.13-.27,.2l-.1-.29c-.31-.96-.62-1.92-.93-2.91,.35-.58,.72-1.15,1.09-1.69Zm-2.1,3.44l.61,2.3c.06,.23,.04,.38-.27,.65-1.12,.99-2.15,2.04-3.1,3.13,.81-2.14,1.74-4.19,2.76-6.08Z"/></g><text class="b" transform="translate(239.77 136.51)"><tspan class="h" x="0" y="0">T</tspan><tspan class="g" x="7.01" y="0">e acompañamos a líberar tu expresión</tspan></text></svg>