<?xml version="1.0" encoding="UTF-8" standalone="no"?>
<svg
   id="a"
   viewBox="0 0 558.16 451.54"
   version="1.1"
   sodipodi:docname="logobitonebluelila.svg"
   inkscape:version="1.1.1 (3bf5ae0d25, 2021-09-20)"
   xmlns:inkscape="http://www.inkscape.org/namespaces/inkscape"
   xmlns:sodipodi="http://sodipodi.sourceforge.net/DTD/sodipodi-0.dtd"
   xmlns="http://www.w3.org/2000/svg"
   xmlns:svg="http://www.w3.org/2000/svg">
  <sodipodi:namedview
     id="namedview93"
     pagecolor="#ffffff"
     bordercolor="#666666"
     borderopacity="1.0"
     inkscape:pageshadow="2"
     inkscape:pageopacity="0.0"
     inkscape:pagecheckerboard="0"
     showgrid="false"
     inkscape:zoom="1.5923284"
     inkscape:cx="295.47924"
     inkscape:cy="225.77"
     inkscape:window-width="1080"
     inkscape:window-height="1849"
     inkscape:window-x="1912"
     inkscape:window-y="-8"
     inkscape:window-maximized="1"
     inkscape:current-layer="a" />
  <defs
     id="defs4">
    <style
       id="style2">.b{fill:#a59fbe;}.b,.c,.d,.e{isolation:isolate;}.b,.e{font-family:Gabriela-Regular, Gabriela;font-size:68px;}.f{letter-spacing:-.07em;}.g{letter-spacing:-.01em;}.h{fill:#a69fbf;stroke:#a69fbf;}.h,.i,.e{stroke-miterlimit:10;}.c{font-family:Marcellus-Regular, Marcellus;font-size:24px;}.c,.d{fill:#269e91;}.i{stroke:#269e91;stroke-width:.89px;}.i,.j,.e{fill:none;}.d{font-family:Belleza-Regular, Belleza;font-size:16px;}.e{stroke:#a59fbe;}.k{font-family:MyriadPro-Regular, Myriad Pro;font-size:12px;}.l{letter-spacing:-.01em;}</style>
  </defs>
  <text
     class="b"
     transform="translate(166.55 428.9)"
     id="text8"><tspan
       x="0"
       y="0"
       id="tspan6">ANZARTE</tspan></text>
  <text
     class="e"
     transform="translate(166.55 428.9)"
     id="text12"><tspan
       x="0"
       y="0"
       id="tspan10">ANZARTE</tspan></text>
  <rect
     class="j"
     x="179.4"
     y="353.15"
     width="115.2"
     height="27.1"
     id="rect14" />
  <text
     class="c"
     transform="translate(182.76 371.79)"
     id="text18"><tspan
       x="0"
       y="0"
       id="tspan16">Fundación</tspan></text>
  <g
     id="g36">
    <polygon
       class="i"
       points="55.6 313.55 91.3 442.25 160.4 396.45 55.6 313.55"
       id="polygon20" />
    <line
       class="i"
       x1="160.4"
       y1="396.45"
       x2="77.5"
       y2="392.45"
       id="line22" />
    <line
       class="i"
       x1="93.6"
       y1="404.85"
       x2="100.7"
       y2="405.25"
       id="line24" />
    <line
       class="i"
       x1="110"
       y1="394.05"
       x2="93.6"
       y2="404.85"
       id="line26" />
    <line
       class="i"
       x1="91.3"
       y1="442.25"
       x2="110"
       y2="394.05"
       id="line28" />
    <line
       class="i"
       x1="99.3"
       y1="401.05"
       x2="97.9"
       y2="405.15"
       id="line30" />
    <line
       class="i"
       x1="103"
       y1="412.05"
       x2="99.3"
       y2="401.05"
       id="line32" />
    <line
       class="i"
       x1="77.5"
       y1="392.45"
       x2="103"
       y2="412.05"
       id="line34" />
  </g>
  <g
     id="g74">
    <path
       class="h"
       d="M16.3,331.65l-1.6,.5c-.3,.1-.5,.2-.8,.3-.6,.2-1.4,.5-2.1,.6-1.3,.2-2.6-.3-3.4-1.1-.8-.9-1.2-2.1-.9-3.3,.1-.8,.6-1.5,1.3-2,.6-.4,1.4-.5,2.2-.3,.7,.2,1.2,.7,1.4,1.3,.2,.6,0,1.3-.4,1.8-.4,.4-1.1,.5-1.6,.2-.4-.3-.5-.6-.3-1.1,0-.1,.2-.3,.3-.4l.3-.3,.7-.9-1.1,.2c-.9,.2-1.4,.8-1.5,1.8,0,1,.4,1.8,1.4,2.1,1.1,.4,2.2,.2,3-.6,.9-.9,1.1-2,.7-3.2-.3-1-1-1.7-1.9-2.1-1-.4-2.2-.4-3.3,.1-1.1,.5-1.9,1.4-2.3,2.6-.4,1.2-.3,2.7,.3,3.9,.7,1.5,2.3,2.5,4.2,2.8,.3,0,.6,.1,.9,.1,1.4,0,2.8-.5,3.6-1.4l.9-1.6Z"
       id="path38" />
    <path
       class="h"
       d="M29.1,328.55l1.6,.6-1.2-1.3c-.2-.2-.3-.4-.5-.5-.4-.4-.8-.8-1-1.2-.8-1.2-.7-2.5,.1-3.9,.7-1.1,1.6-1.5,2.9-1.4,.7,.1,1.3,.4,1.7,1,.3,.4,.4,1,.3,1.5-.2,.9-.9,1.5-1.7,1.4-.5-.1-1.2-.3-1.1-1.6l.1-2.1-.9,1.8c-.5,1-.4,1.8,.4,2.5,.8,.7,2.2,.9,3.2,.4,.9-.5,1.6-1.5,1.7-2.6,.1-1.1-.3-2.2-1.1-2.9-1-.8-2.3-1.2-3.5-1-1.3,.2-2.4,1-3.1,2.2-.8,1.3-.9,2.9-.4,4.4,.5,1.4,1.4,2.3,2.5,2.7Z"
       id="path40" />
    <path
       class="h"
       d="M19.8,327.95l-.8-2.6c-.1-.3-.2-.7-.3-1-.2-.7-.4-1.4-.6-2-.4-1.9,0-3.7,1.4-5.9,.2-.3,.2-.7,.2-1v-.3l.1-.8-.8,.3c-.1,0-.2,.1-.3,.1-.3,.1-.6,.2-.9,.5-1,1-1.6,2.3-1.7,4-.2,2.2,.5,4.3,2,6.4l1.7,2.3Z"
       id="path42" />
    <path
       class="h"
       d="M12.7,324.25c.1,.1,.3,.1,.4,.2l3.2,1.4-2.6-2.1c-2.9-2.3-5.8-2.8-8.7-1.6-.3,.1-.7,.4-.9,.6l.1-.1c.1-.2,.2-.3,.2-.4,.2-.3,.3-.6,.3-.9-.1-.4-.7-.9-1.2-.8-.4,.1-.8,.6-.8,1.1,0,.3,.2,.6,.5,.8l.3,.3,.3,.3-.1,.1-.3,.3c-.3,.3-.3,.8-.2,1.1,.2,.4,.8,.4,1.1,.3,.4-.1,.8-.3,1.2-.5,2.3-1.3,4.7-1.3,7.2-.1Z"
       id="path44" />
    <path
       class="h"
       d="M38.5,326.45l1.2-2.3-1.9,1.7c-4,3.6-8.4,4.4-13.5,2.4l-3.2-1.1,2.8,2c1.7,1.2,3.8,1.8,6,1.8,.9,0,1.7-.1,2.6-.3,2.7-.6,4.9-2.2,6-4.2Z"
       id="path46" />
    <path
       class="h"
       d="M26.2,334.95l3.9-1.8-4.2,1c-3.3,.8-5.8-.2-7.7-2.8l-.3-.4-.9,.7v.5c0,.2,0,.5,.1,.8,.5,1.2,1.5,2,2.8,2.4,.8,.3,1.7,.4,2.5,.4,1.4,0,2.6-.3,3.8-.8Z"
       id="path48" />
    <path
       class="h"
       d="M14.9,323.45l1.8,2.5-1-2.8-.3-.9c-.2-.7-.5-1.3-.6-1.9-.8-3.5,.9-7.7,3.9-9.3,1.5-.8,3.1-.9,4.9-.2l.4-.8c-2.5-1.5-5.8-.9-7.9,1.5-2.9,3.2-3.4,7.8-1.4,11.6,.1,.1,.1,.2,.2,.3Z"
       id="path50" />
    <path
       class="h"
       d="M42.4,328.75c-.2,0-.3,.1-.4,.2,.6-1.1,1.1-2.3,1.6-3.5l-.9-.4c-.3,.5-.5,.9-.8,1.4-.6,1-1.1,2-1.7,3-2.7,4.5-5.4,7.5-8.7,9.6-3.8,2.4-8,3.3-12.5,2.6h-.4l-3.7-.4,3.4,1.2c1.4,.5,2.9,.7,4.7,.7h1.3c3.8-.2,7.3-1.7,10.5-4.6,2.5-2.3,4.7-5,6.5-8.3v.2c.1,.7,.6,1.2,1.3,1.2h.2c.5-.1,.9-.3,1.1-.7,.2-.3,.3-.7,.2-1-.2-1-.9-1.4-1.7-1.2Z"
       id="path52" />
    <path
       class="h"
       d="M22,315.05c-.2,.3-.3,.7-.2,1.1,.2,.7,.6,1.1,1.2,1.1,.1,0,.3,0,.4-.1,.4-.1,.8-.3,1-.7,.2-.3,.3-.7,.2-1.1-.2-.7-.8-1.1-1.6-1-.4,0-.8,.3-1,.7Z"
       id="path54" />
    <path
       class="h"
       d="M56.3,326.15c-.4-.2-.7-.4-1-.4-.4,0-.7,.2-1,.5-.2,.3-.3,.7-.2,1,.1,.4,.4,.7,.7,.9,.2,.1,.4,.1,.6,.1,.1,0,.3,0,.4-.1,.3-.1,.6-.4,.8-.8,.1-.1,.2-.3,.4-.5l.4-.4-.5-.2c-.3,0-.5-.1-.6-.1Z"
       id="path56" />
    <path
       class="h"
       d="M2,322.45c-.1,0-.2-.1-.3-.1l-.4-.3-.2,.4c-.1,.1-.1,.2-.2,.3-.2,.3-.4,.6-.4,1s.3,.6,.6,.9c.1,.1,.2,.1,.2,.2l.2,.2,.3-.1c.5-.3,.9-.5,1-.9,.1-.2,.1-.5-.1-.8-.1-.5-.4-.7-.7-.8Z"
       id="path58" />
    <path
       class="h"
       d="M17.9,313.85c.3,.2,.6,.4,.9,.4h.1c.4,0,.6-.4,.9-.6,.1-.1,.1-.2,.2-.2l.2-.2-.2-.8-.3-.1c-.1,0-.2-.1-.3-.1-.3-.2-.7-.4-1-.2-.3,.1-.5,.5-.7,.8-.1,.1-.1,.2-.2,.3l-.3,.4,.4,.3c.1-.2,.2-.1,.3,0Z"
       id="path60" />
    <path
       class="h"
       d="M42.7,332.65c-.3-.2-.6-.3-.9-.3-.4,0-.7,.2-.9,.5s-.2,.7,0,1c.2,.4,.8,.8,1.2,.8h.1c.4,0,.6-.3,.8-.7,.1-.1,.2-.3,.4-.4l.4-.5-.6-.2c-.2-.1-.4-.2-.5-.2Z"
       id="path62" />
    <path
       class="h"
       d="M16.5,335.75c-.5,.1-.9,.8-.9,1.3,0,.4,.3,.6,.6,.8,.1,.1,.3,.2,.4,.3l.5,.4,.2-.6c.1-.2,.2-.3,.2-.4,.2-.3,.4-.7,.2-1-.1-.4-.7-.9-1.2-.8Z"
       id="path64" />
    <path
       class="h"
       d="M16.8,313.95l-.4-.3-.3,.4c0,.1-.1,.1-.1,.2-.2,.2-.4,.5-.4,.8s.3,.5,.5,.8l.3,.3,.5,.5,.3-.6c.1-.2,.1-.3,.2-.4,.2-.3,.3-.6,.2-.9-.1-.3-.4-.5-.6-.6-.1-.1-.2-.1-.2-.2Z"
       id="path66" />
    <path
       class="h"
       d="M19,336.05c-.4,.1-.7,.6-.7,1,0,.2,0,.3,.2,.5,.1,.1,.5,.4,.8,.4h0c.3,0,.5-.2,.7-.4l.3-.3,.5-.4-.6-.3c-.1-.1-.3-.2-.4-.2-.2-.2-.4-.4-.8-.3Z"
       id="path68" />
    <path
       class="h"
       d="M42.2,335.35c-.1,0-.1-.1-.2-.1l-.4-.2-.2,.4c0,.1-.1,.1-.1,.2-.1,.2-.3,.4-.3,.8,0,.3,.3,.5,.5,.7,.1,.1,.2,.1,.3,.2l.5,.4,.2-.6c0-.1,.1-.2,.1-.3,.1-.3,.2-.5,.2-.8-.1-.5-.4-.6-.6-.7Z"
       id="path70" />
    <path
       class="h"
       d="M133.1,329.55c-19.6-16.7-42-23.3-66.7-19.7-3.7-1.7-10.9-2.9-17.4-1-4.8,1.4-8.6,4.1-11.2,8l-2.3,3.4,2.9-2.9c3.6-3.5,7.7-6.9,13.3-7.7,2.4-.4,4.8-.4,7.2-.2-3,0-5.8,.7-8.5,2-.3,.1-.6,.3-.8,.5l-2.3,1.9,2.8-1.2c2.1-.9,4.1-1.4,6.2-1.5-4.5,1-8.4,3.5-11.7,7.4-1.7,1.9-3.2,4-4.7,6-1,1.3-2,2.7-3,4-1.5,1.8-3.2,4-5,5.9-2.6,2.7-5.5,4.1-8.7,4.4v.9h.9c1.7,0,3.4-.4,5.2-1.4,3.1-1.6,5.9-4,8.6-7.4,1.5-1.9,2.9-3.8,4.3-5.7,.9-1.2,1.7-2.4,2.6-3.6,.3-.4,.6-.8,1-1.2-1.7,4.4-.3,9.8,3.4,12.4,2.7,1.9,6.5,1.7,8.5-.6l2.8-3.1-3.4,2.4c-1.3,1.2-2.4,1.6-3.6,1.6-2.6,0-4.6-1.3-6-4-2.2-4.2-1.3-8.9,2.2-12.3-.1,.1-.1,.2-.2,.3-1.4,2.7-1.6,5.2-.6,7.6,.3,.7,.8,1.3,1.2,1.8l.2,.2c.2,.3,.5,.3,.8,.3h.2l.5,.1v-.7c0-.2,.1-.5,0-.7-.1-.3-.3-.7-.5-1-.1-.3-.3-.6-.4-.9-1.3-3.2-.8-6.2,1.5-9l.2-.2c.5,.1,.9,.1,1.2,0,1-.2,2-.5,3-.8,1.2-.3,2.5-.7,3.8-1-1,1.3-1.7,2.8-2,4-.4,2.1,.3,3.9,2,5.3,1.1,.9,2.6,1.2,4.1,.7,1.3-.4,2.4-1.4,2.7-2.6,.4-1.4,.1-2.8-1.1-3.8-.8-.8-2.2-.9-3.3-.4-.7,.4-1.2,.9-1.3,1.6-.1,.7,.1,1.4,.6,2l1.6,1.7c-.1,0-.2,0-.3,.1-1,.1-1.9-.3-2.6-1-.8-.8-1.2-2.1-1.1-3.3,.2-1.5,1.7-3.6,3.4-4.8,4.5-.8,8.9-1.2,13.2-1.3,10.5,.3,29.2,3.1,48.3,16.7,14,10,28.1,24.3,30.8,61.6,0,0,5,34.3-31.8,47.9,0,0-33.8,8.6-45.9-14.1,0,0-5.4-12.2-1.7-24.1l3.9-4.6,.4,.1s0-.1,.2-.2c3.3-2.9,7.3-5.2,11.9-6.8,.5-.2,1.1-.1,1.7,0,.2,0,.4,0,.6,.1,2.3,.2,4.4,1,6.1,2.4l-1,.3c-1.5,.4-2.6,1.2-3.1,2.4-.9,2.3-2.8,2.8-5.1,3.3-.1,0-.2,0-.4,.1-.2,0-.5,.1-.7,.1l-1.5,.5,1.5,.4c2.2,.5,4.1,0,5.7-1.4,.3,1.8,1.3,3.2,2.9,4.4,2.1,1.5,4.2,1.4,5.5,1.1,2.1-.5,3.9-2,4.9-3.9,1.3-2.6,1.2-5.7-.3-8.5-1.3-2.5-3.5-4.1-6.1-4.6,1.7-.7,3.5-1.5,5.1-2.9,1.8-1.6,2.9-3.6,3.2-6.2,0-.2,0-.4-.4-.6l-.5-.3-.2,.8c0,.1,0,.3-.1,.4,0,.2-.1,.4-.2,.6-.6,1.8-1.7,3.3-3.4,4.6-1.3,1-3.8,2.2-5.8,2.9,1-1.2,1.5-2.6,1.4-4.3l-.1-2.9-.8,2.8c-.4,1.6-1.2,3-2.3,4-1,1-2,1.6-3.1,1.9s-2.2,.6-3.3,1c2.4-2.2,3.8-4.7,4.4-7.5,.3-1.4,.5-2.8,.7-4.1,.2-1.1,.4-2.3,.6-3.4,.2-1.3,.6-2.5,.9-3.7l.2-.6,.1-.1h.6c.6-.1,1.2-.1,1.7,.1,.4,.1,.8,.6,1.2,1.3,.2,.3,.3,.7,.3,1.1,0,.2,.1,.4,.1,.6l.3,1.3,.5-1.2c.3-.7,.3-1.4-.2-2.6l.3,.1c.9,.3,1.7,.5,2.5,.8l.6,.2c2.2,.8,4.6,1.5,7.1,1.4,1.6-.1,2,.1,3.1,1.2l.8,.9v-1.2c0-.8-.3-1.1-1.2-1.7,1-.6,1.7-1.4,2.1-2.4l.7-1.7-1.4,1.2-.1,.1c-.1,.1-.2,.1-.3,.2-1.4,1.7-3.3,2.3-5.7,1.8-2.3-.5-4.7-1.2-6.9-1.9l-.2-.1c-1.7-.5-3.6-1-5.5-.8,.5-1.6,2.7-4.4,5-5.9,2.6-1.8,5.6-2.6,8.1-3.1l3.7-.8-3.8-.1h-.5c-5.7,.6-10,3.2-12.7,7.6v-1.8l-.8,1.2c-.2,.2-.3,.5-.5,.8-.3,.6-.7,1.2-1.1,1.6-.7,.7-1.6,1.3-2.5,1.8-1.8,.8-3.3,1.8-4.7,3l.9-3.6,.4,.3,2-1.4,1,.7-1-1.7-.3,.1,.2-.2c-.5-.3-1.1-.7-1.7-.5-.1,0-.3,.1-.4,.2,.1-4.6-1-9.1-3.2-13.9l-.8,.3v.2c0,.2,.1,.3,.1,.5,1.8,4.4,2.6,8.6,2.4,12.9-.1,3.5-1.1,7-2.8,10.6-2,4.2-4.8,7.9-7.4,11.6l-.1,.2c-2.5,3.4-4.4,6.4-5.8,9.2-2.2,3.9-3.6,7.4-4.2,11.9-.2,.9-.3,1.7-.4,2.6h.2c0,.5-.1,1-.1,1.5-.8,15.7,7.5,28.2,22.3,33.4,6.4,2.3,12.7,3.4,18.8,3.4,11.5,0,22.3-4,32.3-12.1,12.3-9.9,18.7-23.2,19-39.6,1-27.6-8.8-49.7-28.6-66.7Zm-69.9-10.4c-.5-1.2-.2-1.6,.4-1.9,.3-.1,.5-.2,.7-.2,.5,0,1,.3,1.4,1,.4,.6,.4,1.4,.1,2s-.9,1.1-1.7,1.3l-.9-2.2Zm36.4,66.2c1.2-.3,2.4-.3,3.7,.1,3.4,.9,6.2,4.9,6,8.5-.2,3.9-3.9,5.9-6.4,5.8-1.3,0-2.7-.8-3.7-2s-1.4-2.6-1.2-3.8c.2-1,.7-1.9,1.8-2.5l.1-.1c.2-.1,.4-.2,.6-.4l.7-.9,.8,.7-.2-1.2c-.1-.8-1-1.6-2.1-2.2-.9-.5-1.8-.8-2.7-1-.2,0-.3-.1-.5-.1,1-.3,2-.6,3.1-.9Zm-1.1-18.8l-.4,1.6c-.3-.4-.6-.9-1.1-1.1,.5-.3,1-.4,1.5-.5Zm-17.9,20.9l.9,1.1,.1-.9,2-.4v-.3c.1-.7,0-1.2-.4-1.6-.3-.3-.7-.4-1.1-.4h0c2.4-3.3,4.9-6.8,6.7-10.7,1.1-2.4,2.9-4.4,5.4-6,.6-.4,1.2-.7,1.8-1h0c.1,.3,.3,.5,.5,.7,.8,.9,1.1,2,1,3-.3,1.9-.7,3.8-1.1,5.6-.1,.3-.1,.6-.2,.9-.3-1.1-.7-1.7-1.5-1.9l-.9-.3,.3,.8c.1,.1,.1,.3,.2,.3l.1,.1c1,2.2,1,4-.1,5.5-.5,.7-1.1,1.3-1.7,1.9-.3,.3-.5,.6-.8,.9l-.5,.5h0l-.1,.1c-1.3,.9-2.7,1.8-4,2.6l-2.1,1.2-2.4,1.5c-.7,.4-1.3,.9-1.9,1.3-.1,.1-.2,.1-.3,.2l-.1-.3c-.3-1-.6-1.9-.9-2.9,.4-.4,.7-.9,1.1-1.5Zm-2.1,3.5l.6,2.3c.1,.2,0,.4-.3,.6-1.1,1-2.1,2-3.1,3.1,.9-2.1,1.8-4.1,2.8-6Z"
       id="path72" />
  </g>
  <text
     class="d"
     transform="translate(232.46 447.95)"
     id="text80"><tspan
       class="f"
       x="0"
       y="0"
       id="tspan76">T</tspan><tspan
       x="7.36"
       y="0"
       id="tspan78">e acompañamos a liberar tu expresión</tspan></text>
</svg>
